<mxfile host="app.diagrams.net" modified="2021-12-29T06:01:23.928Z" agent="5.0 (Macintosh; Intel Mac OS X 10_16_0) AppleWebKit/537.36 (KHTML, like Gecko) Chrome/80.0.3987.163 Safari/537.36" etag="x-CKDbkEn1Yz16vXDZOo" version="16.1.0" type="github">
  <diagram id="KZ6Oh91IzT9d4bb2Npnq" name="第 1 页">
    <mxGraphModel dx="3452" dy="706" grid="1" gridSize="10" guides="1" tooltips="1" connect="1" arrows="1" fold="1" page="1" pageScale="1" pageWidth="2339" pageHeight="3300" math="0" shadow="0">
      <root>
        <mxCell id="0" />
        <mxCell id="1" parent="0" />
        <mxCell id="WCMMu7L2FQIAezlBjaeM-1" value="传进来的如果是个beanName包含&amp;amp;就去掉" style="edgeStyle=orthogonalEdgeStyle;rounded=0;orthogonalLoop=1;jettySize=auto;html=1;exitX=0.5;exitY=1;exitDx=0;exitDy=0;" edge="1" parent="1" source="WCMMu7L2FQIAezlBjaeM-5" target="WCMMu7L2FQIAezlBjaeM-3">
          <mxGeometry relative="1" as="geometry" />
        </mxCell>
        <mxCell id="WCMMu7L2FQIAezlBjaeM-2" value="首先会先尝试到三级缓存中查找" style="edgeStyle=orthogonalEdgeStyle;rounded=0;orthogonalLoop=1;jettySize=auto;html=1;exitX=0.5;exitY=1;exitDx=0;exitDy=0;" edge="1" parent="1" source="WCMMu7L2FQIAezlBjaeM-3" target="WCMMu7L2FQIAezlBjaeM-8">
          <mxGeometry relative="1" as="geometry">
            <mxPoint x="705" y="390" as="targetPoint" />
          </mxGeometry>
        </mxCell>
        <mxCell id="WCMMu7L2FQIAezlBjaeM-3" value="&lt;div&gt;&lt;font color=&quot;#080808&quot; face=&quot;jetbrains mono, monospace&quot;&gt;&lt;span style=&quot;font-size: 13.0667px&quot;&gt;AbstractBeanFactory.java&lt;/span&gt;&lt;/font&gt;&lt;/div&gt;&lt;div&gt;&lt;font color=&quot;#080808&quot; face=&quot;jetbrains mono, monospace&quot;&gt;&lt;span style=&quot;font-size: 13.0667px&quot;&gt;transformedBeanName(name);&lt;/span&gt;&lt;/font&gt;&lt;/div&gt;" style="rounded=1;whiteSpace=wrap;html=1;" vertex="1" parent="1">
          <mxGeometry x="590" y="250" width="230" height="60" as="geometry" />
        </mxCell>
        <mxCell id="WCMMu7L2FQIAezlBjaeM-4" value="bean的生命周期" style="shape=document;whiteSpace=wrap;html=1;boundedLbl=1;fillColor=#e1d5e7;strokeColor=#9673a6;" vertex="1" parent="1">
          <mxGeometry x="200" y="120" width="120" height="80" as="geometry" />
        </mxCell>
        <mxCell id="WCMMu7L2FQIAezlBjaeM-5" value="&lt;div&gt;&lt;font color=&quot;#080808&quot; face=&quot;jetbrains mono, monospace&quot;&gt;&lt;span style=&quot;font-size: 13.0667px&quot;&gt;AbstractBeanFactory.java&lt;/span&gt;&lt;/font&gt;&lt;/div&gt;&lt;div&gt;&lt;font color=&quot;#080808&quot; face=&quot;jetbrains mono, monospace&quot;&gt;&lt;span style=&quot;font-size: 13.0667px&quot;&gt;doGetBean(...)&lt;/span&gt;&lt;/font&gt;&lt;/div&gt;" style="shape=parallelogram;perimeter=parallelogramPerimeter;whiteSpace=wrap;html=1;fixedSize=1;" vertex="1" parent="1">
          <mxGeometry x="587.5" y="120" width="235" height="60" as="geometry" />
        </mxCell>
        <mxCell id="WCMMu7L2FQIAezlBjaeM-6" style="edgeStyle=orthogonalEdgeStyle;rounded=0;orthogonalLoop=1;jettySize=auto;html=1;exitX=0;exitY=1;exitDx=0;exitDy=0;" edge="1" parent="1" source="WCMMu7L2FQIAezlBjaeM-8" target="WCMMu7L2FQIAezlBjaeM-11">
          <mxGeometry relative="1" as="geometry" />
        </mxCell>
        <mxCell id="WCMMu7L2FQIAezlBjaeM-7" value="三级缓存中没有" style="edgeLabel;html=1;align=center;verticalAlign=middle;resizable=0;points=[];" vertex="1" connectable="0" parent="WCMMu7L2FQIAezlBjaeM-6">
          <mxGeometry x="-0.0722" relative="1" as="geometry">
            <mxPoint x="-5" as="offset" />
          </mxGeometry>
        </mxCell>
        <mxCell id="WCMMu7L2FQIAezlBjaeM-8" value="&lt;div&gt;AbstractBeanFactory.java&lt;/div&gt;&lt;div&gt;getSingleton(beanName);&lt;/div&gt;" style="rhombus;whiteSpace=wrap;html=1;" vertex="1" parent="1">
          <mxGeometry x="565" y="390" width="280" height="90" as="geometry" />
        </mxCell>
        <mxCell id="WCMMu7L2FQIAezlBjaeM-9" style="edgeStyle=orthogonalEdgeStyle;rounded=0;orthogonalLoop=1;jettySize=auto;html=1;" edge="1" parent="1">
          <mxGeometry relative="1" as="geometry">
            <mxPoint x="820" y="440" as="sourcePoint" />
            <mxPoint x="820" y="460" as="targetPoint" />
          </mxGeometry>
        </mxCell>
        <mxCell id="WCMMu7L2FQIAezlBjaeM-10" style="edgeStyle=orthogonalEdgeStyle;rounded=0;orthogonalLoop=1;jettySize=auto;html=1;exitX=0.5;exitY=1;exitDx=0;exitDy=0;entryX=0.5;entryY=0;entryDx=0;entryDy=0;" edge="1" parent="1" source="WCMMu7L2FQIAezlBjaeM-11" target="WCMMu7L2FQIAezlBjaeM-17">
          <mxGeometry relative="1" as="geometry" />
        </mxCell>
        <mxCell id="WCMMu7L2FQIAezlBjaeM-11" value="&lt;div&gt;AbstractBeanFactory.java&lt;/div&gt;&lt;div&gt;transformedBeanName(name);&lt;/div&gt;" style="rounded=1;whiteSpace=wrap;html=1;" vertex="1" parent="1">
          <mxGeometry x="390" y="560" width="230" height="60" as="geometry" />
        </mxCell>
        <mxCell id="WCMMu7L2FQIAezlBjaeM-12" style="edgeStyle=orthogonalEdgeStyle;rounded=0;orthogonalLoop=1;jettySize=auto;html=1;exitX=0;exitY=0.5;exitDx=0;exitDy=0;entryX=1;entryY=0.5;entryDx=0;entryDy=0;" edge="1" parent="1" source="WCMMu7L2FQIAezlBjaeM-17" target="WCMMu7L2FQIAezlBjaeM-18">
          <mxGeometry relative="1" as="geometry" />
        </mxCell>
        <mxCell id="WCMMu7L2FQIAezlBjaeM-13" value="" style="edgeStyle=orthogonalEdgeStyle;rounded=0;orthogonalLoop=1;jettySize=auto;html=1;" edge="1" parent="1" source="WCMMu7L2FQIAezlBjaeM-17" target="WCMMu7L2FQIAezlBjaeM-18">
          <mxGeometry relative="1" as="geometry" />
        </mxCell>
        <mxCell id="WCMMu7L2FQIAezlBjaeM-14" value="否" style="edgeLabel;html=1;align=center;verticalAlign=middle;resizable=0;points=[];" vertex="1" connectable="0" parent="WCMMu7L2FQIAezlBjaeM-13">
          <mxGeometry x="0.08" y="2" relative="1" as="geometry">
            <mxPoint as="offset" />
          </mxGeometry>
        </mxCell>
        <mxCell id="WCMMu7L2FQIAezlBjaeM-15" style="edgeStyle=orthogonalEdgeStyle;rounded=0;orthogonalLoop=1;jettySize=auto;html=1;exitX=0.5;exitY=1;exitDx=0;exitDy=0;entryX=0.5;entryY=0;entryDx=0;entryDy=0;" edge="1" parent="1" source="WCMMu7L2FQIAezlBjaeM-17" target="WCMMu7L2FQIAezlBjaeM-20">
          <mxGeometry relative="1" as="geometry" />
        </mxCell>
        <mxCell id="WCMMu7L2FQIAezlBjaeM-16" value="是" style="edgeLabel;html=1;align=center;verticalAlign=middle;resizable=0;points=[];" vertex="1" connectable="0" parent="WCMMu7L2FQIAezlBjaeM-15">
          <mxGeometry x="-0.1529" relative="1" as="geometry">
            <mxPoint as="offset" />
          </mxGeometry>
        </mxCell>
        <mxCell id="WCMMu7L2FQIAezlBjaeM-17" value="&lt;div&gt;当前容器中是否存在当前beanName的&lt;/div&gt;&lt;div&gt;BeanDefinition&lt;/div&gt;" style="rhombus;whiteSpace=wrap;html=1;" vertex="1" parent="1">
          <mxGeometry x="347.5" y="685" width="315" height="100" as="geometry" />
        </mxCell>
        <mxCell id="WCMMu7L2FQIAezlBjaeM-18" value="&lt;div&gt;// 如果当前容器中没有当前beanName的&lt;/div&gt;&lt;div&gt;BeanDefinition，并且存在父容器，则去&lt;/div&gt;&lt;div&gt;父容器中找，并返回。&lt;/div&gt;&lt;div&gt;parentBeanFactory != null&amp;nbsp;&lt;/div&gt;&lt;div&gt;&amp;amp;&amp;amp; !containsBeanDefinition(beanName)&lt;/div&gt;" style="rounded=1;whiteSpace=wrap;html=1;" vertex="1" parent="1">
          <mxGeometry x="-30" y="685" width="260" height="100" as="geometry" />
        </mxCell>
        <mxCell id="WCMMu7L2FQIAezlBjaeM-19" style="edgeStyle=orthogonalEdgeStyle;rounded=0;orthogonalLoop=1;jettySize=auto;html=1;exitX=0.5;exitY=1;exitDx=0;exitDy=0;entryX=0.5;entryY=0;entryDx=0;entryDy=0;" edge="1" parent="1" source="WCMMu7L2FQIAezlBjaeM-20" target="WCMMu7L2FQIAezlBjaeM-25">
          <mxGeometry relative="1" as="geometry" />
        </mxCell>
        <mxCell id="WCMMu7L2FQIAezlBjaeM-20" value="&lt;div&gt;AbstractBeanFactory.java&lt;/div&gt;&lt;div&gt;解析@dependsOn注解&lt;/div&gt;" style="rounded=1;whiteSpace=wrap;html=1;" vertex="1" parent="1">
          <mxGeometry x="390" y="870" width="230" height="60" as="geometry" />
        </mxCell>
        <mxCell id="WCMMu7L2FQIAezlBjaeM-21" style="edgeStyle=orthogonalEdgeStyle;rounded=0;orthogonalLoop=1;jettySize=auto;html=1;exitX=1;exitY=0;exitDx=0;exitDy=0;entryX=0;entryY=0.5;entryDx=0;entryDy=0;" edge="1" parent="1" source="WCMMu7L2FQIAezlBjaeM-25" target="WCMMu7L2FQIAezlBjaeM-28">
          <mxGeometry relative="1" as="geometry" />
        </mxCell>
        <mxCell id="WCMMu7L2FQIAezlBjaeM-22" value="singleton" style="edgeLabel;html=1;align=center;verticalAlign=middle;resizable=0;points=[];" vertex="1" connectable="0" parent="WCMMu7L2FQIAezlBjaeM-21">
          <mxGeometry x="0.1341" y="-2" relative="1" as="geometry">
            <mxPoint x="1" as="offset" />
          </mxGeometry>
        </mxCell>
        <mxCell id="WCMMu7L2FQIAezlBjaeM-23" style="edgeStyle=orthogonalEdgeStyle;rounded=0;orthogonalLoop=1;jettySize=auto;html=1;exitX=0.5;exitY=1;exitDx=0;exitDy=0;entryX=0;entryY=0.5;entryDx=0;entryDy=0;startArrow=none;startFill=0;" edge="1" parent="1" source="WCMMu7L2FQIAezlBjaeM-25" target="WCMMu7L2FQIAezlBjaeM-135">
          <mxGeometry relative="1" as="geometry" />
        </mxCell>
        <mxCell id="WCMMu7L2FQIAezlBjaeM-24" value="prototype" style="edgeLabel;html=1;align=center;verticalAlign=middle;resizable=0;points=[];" vertex="1" connectable="0" parent="WCMMu7L2FQIAezlBjaeM-23">
          <mxGeometry x="-0.4117" y="-1" relative="1" as="geometry">
            <mxPoint as="offset" />
          </mxGeometry>
        </mxCell>
        <mxCell id="WCMMu7L2FQIAezlBjaeM-25" value="判断bean的scope属性" style="rhombus;whiteSpace=wrap;html=1;" vertex="1" parent="1">
          <mxGeometry x="365" y="1040" width="280" height="60" as="geometry" />
        </mxCell>
        <mxCell id="WCMMu7L2FQIAezlBjaeM-26" style="edgeStyle=orthogonalEdgeStyle;rounded=0;orthogonalLoop=1;jettySize=auto;html=1;exitX=0.5;exitY=1;exitDx=0;exitDy=0;" edge="1" parent="1" source="WCMMu7L2FQIAezlBjaeM-28" target="WCMMu7L2FQIAezlBjaeM-130">
          <mxGeometry relative="1" as="geometry">
            <mxPoint x="910" y="1130" as="targetPoint" />
          </mxGeometry>
        </mxCell>
        <mxCell id="WCMMu7L2FQIAezlBjaeM-27" value="尝试从singletonObjects中获取" style="edgeLabel;html=1;align=center;verticalAlign=middle;resizable=0;points=[];" vertex="1" connectable="0" parent="WCMMu7L2FQIAezlBjaeM-26">
          <mxGeometry x="-0.0333" y="3" relative="1" as="geometry">
            <mxPoint as="offset" />
          </mxGeometry>
        </mxCell>
        <mxCell id="WCMMu7L2FQIAezlBjaeM-28" value="&lt;div style=&quot;text-align: center&quot;&gt;AbstractBeanFactory.java&lt;/div&gt;&lt;div&gt;getSingleton(beanName, () -&amp;gt; {&lt;/div&gt;&lt;div&gt;&amp;nbsp; &amp;nbsp; return createBean(beanName, mbd, args);&lt;/div&gt;&lt;div&gt;&amp;nbsp;});&lt;/div&gt;&lt;div&gt;&amp;nbsp; &amp;nbsp;&lt;/div&gt;" style="rounded=1;whiteSpace=wrap;html=1;align=left;" vertex="1" parent="1">
          <mxGeometry x="787.5" y="890" width="245" height="80" as="geometry" />
        </mxCell>
        <mxCell id="WCMMu7L2FQIAezlBjaeM-29" style="edgeStyle=orthogonalEdgeStyle;rounded=0;orthogonalLoop=1;jettySize=auto;html=1;exitX=0.5;exitY=1;exitDx=0;exitDy=0;entryX=0.5;entryY=0;entryDx=0;entryDy=0;" edge="1" parent="1" source="WCMMu7L2FQIAezlBjaeM-32" target="WCMMu7L2FQIAezlBjaeM-34">
          <mxGeometry relative="1" as="geometry" />
        </mxCell>
        <mxCell id="WCMMu7L2FQIAezlBjaeM-30" value="将创建好的bean放入singletonObjects" style="edgeLabel;html=1;align=center;verticalAlign=middle;resizable=0;points=[];" vertex="1" connectable="0" parent="WCMMu7L2FQIAezlBjaeM-29">
          <mxGeometry x="-0.2286" y="-3" relative="1" as="geometry">
            <mxPoint as="offset" />
          </mxGeometry>
        </mxCell>
        <mxCell id="WCMMu7L2FQIAezlBjaeM-31" style="edgeStyle=orthogonalEdgeStyle;rounded=0;orthogonalLoop=1;jettySize=auto;html=1;exitX=1;exitY=0.5;exitDx=0;exitDy=0;" edge="1" parent="1" source="WCMMu7L2FQIAezlBjaeM-32" target="WCMMu7L2FQIAezlBjaeM-39">
          <mxGeometry relative="1" as="geometry" />
        </mxCell>
        <mxCell id="WCMMu7L2FQIAezlBjaeM-32" value="&lt;div&gt;&lt;span style=&quot;font-size: 11px ; background-color: rgb(255 , 255 , 255)&quot;&gt;调用上文传来的lambda函数&lt;/span&gt;&lt;br&gt;&lt;/div&gt;&lt;div&gt;DefaultSingletonBeanRegistry.java&lt;/div&gt;&lt;div&gt;singletonFactory.getObject()&lt;/div&gt;" style="rounded=1;whiteSpace=wrap;html=1;" vertex="1" parent="1">
          <mxGeometry x="790" y="1130" width="240" height="60" as="geometry" />
        </mxCell>
        <mxCell id="WCMMu7L2FQIAezlBjaeM-33" style="edgeStyle=orthogonalEdgeStyle;rounded=0;orthogonalLoop=1;jettySize=auto;html=1;exitX=0;exitY=0.5;exitDx=0;exitDy=0;entryX=0;entryY=0.5;entryDx=0;entryDy=0;dashed=1;" edge="1" parent="1" source="WCMMu7L2FQIAezlBjaeM-34" target="WCMMu7L2FQIAezlBjaeM-130">
          <mxGeometry relative="1" as="geometry">
            <Array as="points">
              <mxPoint x="730" y="1285" />
              <mxPoint x="730" y="1050" />
            </Array>
          </mxGeometry>
        </mxCell>
        <mxCell id="WCMMu7L2FQIAezlBjaeM-34" value="&lt;div&gt;DefaultSingletonBeanRegistry.java&lt;/div&gt;&lt;div&gt;addSingleton(beanName, singletonObject);&lt;/div&gt;" style="rounded=1;whiteSpace=wrap;html=1;fillColor=#f8cecc;strokeColor=#b85450;" vertex="1" parent="1">
          <mxGeometry x="777.5" y="1260" width="265" height="50" as="geometry" />
        </mxCell>
        <mxCell id="WCMMu7L2FQIAezlBjaeM-35" style="edgeStyle=orthogonalEdgeStyle;rounded=0;orthogonalLoop=1;jettySize=auto;html=1;exitX=1;exitY=0.5;exitDx=0;exitDy=0;entryX=0;entryY=0.5;entryDx=0;entryDy=0;" edge="1" parent="1" source="WCMMu7L2FQIAezlBjaeM-39" target="WCMMu7L2FQIAezlBjaeM-40">
          <mxGeometry relative="1" as="geometry" />
        </mxCell>
        <mxCell id="WCMMu7L2FQIAezlBjaeM-36" style="edgeStyle=orthogonalEdgeStyle;rounded=0;orthogonalLoop=1;jettySize=auto;html=1;exitX=1;exitY=0.5;exitDx=0;exitDy=0;" edge="1" parent="1" source="WCMMu7L2FQIAezlBjaeM-39" target="WCMMu7L2FQIAezlBjaeM-41">
          <mxGeometry relative="1" as="geometry" />
        </mxCell>
        <mxCell id="WCMMu7L2FQIAezlBjaeM-37" style="edgeStyle=orthogonalEdgeStyle;rounded=0;orthogonalLoop=1;jettySize=auto;html=1;exitX=1;exitY=0.5;exitDx=0;exitDy=0;entryX=0;entryY=0.5;entryDx=0;entryDy=0;" edge="1" parent="1" source="WCMMu7L2FQIAezlBjaeM-39" target="WCMMu7L2FQIAezlBjaeM-43">
          <mxGeometry relative="1" as="geometry" />
        </mxCell>
        <mxCell id="WCMMu7L2FQIAezlBjaeM-38" style="edgeStyle=orthogonalEdgeStyle;rounded=0;orthogonalLoop=1;jettySize=auto;html=1;exitX=1;exitY=0.5;exitDx=0;exitDy=0;entryX=0;entryY=0.5;entryDx=0;entryDy=0;" edge="1" parent="1" source="WCMMu7L2FQIAezlBjaeM-39" target="WCMMu7L2FQIAezlBjaeM-54">
          <mxGeometry relative="1" as="geometry" />
        </mxCell>
        <mxCell id="WCMMu7L2FQIAezlBjaeM-39" value="&lt;span style=&quot;font-size: 13.0667px&quot;&gt;AbstractAutowireCapableBeanFactory&lt;/span&gt;&lt;span style=&quot;font-size: 13.0667px&quot;&gt;.java&lt;/span&gt;&lt;span style=&quot;font-size: 13.0667px&quot;&gt;&lt;br&gt;&lt;/span&gt;&lt;span style=&quot;font-size: 13.0667px&quot;&gt;createBean&lt;/span&gt;&lt;span style=&quot;font-size: 13.0667px&quot;&gt;()&lt;/span&gt;&lt;span style=&quot;font-size: 13.0667px&quot;&gt;&lt;br&gt;&lt;/span&gt;" style="rounded=1;whiteSpace=wrap;html=1;" vertex="1" parent="1">
          <mxGeometry x="1110" y="1130" width="280" height="60" as="geometry" />
        </mxCell>
        <mxCell id="WCMMu7L2FQIAezlBjaeM-40" value="&lt;span style=&quot;font-size: 13.0667px&quot;&gt;通过classLoad加载类AbstractAutowireCapableBeanFactory&lt;/span&gt;&lt;span style=&quot;font-size: 13.0667px&quot;&gt;.java&lt;/span&gt;&lt;span style=&quot;font-size: 13.0667px&quot;&gt;&lt;br&gt;&lt;/span&gt;&lt;span style=&quot;font-size: 13.0667px&quot;&gt;resolveBeanClass(mbd, beanName);&lt;/span&gt;" style="rounded=1;whiteSpace=wrap;html=1;fillColor=#e1d5e7;strokeColor=#9673a6;" vertex="1" parent="1">
          <mxGeometry x="1497" y="1080" width="280" height="60" as="geometry" />
        </mxCell>
        <mxCell id="WCMMu7L2FQIAezlBjaeM-41" value="&lt;span style=&quot;font-size: 13.0667px&quot;&gt;解析@Lookup注解&lt;br&gt;AbstractAutowireCapableBeanFactory&lt;/span&gt;&lt;span style=&quot;font-size: 13.0667px&quot;&gt;.java&lt;/span&gt;&lt;span style=&quot;font-size: 13.0667px&quot;&gt;&lt;br&gt;&lt;/span&gt;&lt;span style=&quot;font-size: 13.0667px&quot;&gt;mbdToUse.prepareMethodOverrides();&lt;/span&gt;" style="rounded=1;whiteSpace=wrap;html=1;" vertex="1" parent="1">
          <mxGeometry x="1497" y="1170" width="280" height="60" as="geometry" />
        </mxCell>
        <mxCell id="WCMMu7L2FQIAezlBjaeM-42" style="edgeStyle=orthogonalEdgeStyle;rounded=0;orthogonalLoop=1;jettySize=auto;html=1;exitX=1;exitY=0.5;exitDx=0;exitDy=0;entryX=0;entryY=0.5;entryDx=0;entryDy=0;" edge="1" parent="1" source="WCMMu7L2FQIAezlBjaeM-43" target="WCMMu7L2FQIAezlBjaeM-47">
          <mxGeometry relative="1" as="geometry" />
        </mxCell>
        <mxCell id="WCMMu7L2FQIAezlBjaeM-43" value="&lt;span style=&quot;font-size: 13.0667px&quot;&gt;AbstractAutowireCapableBeanFactory&lt;/span&gt;&lt;span style=&quot;font-size: 13.0667px&quot;&gt;.java&lt;/span&gt;&lt;span style=&quot;font-size: 13.0667px&quot;&gt;&lt;br&gt;&lt;/span&gt;&lt;span style=&quot;font-size: 13.0667px&quot;&gt;resolveBeforeInstantiation(beanName, mbdToUse);&lt;/span&gt;" style="rounded=1;whiteSpace=wrap;html=1;fillColor=#e1d5e7;strokeColor=#9673a6;" vertex="1" parent="1">
          <mxGeometry x="1497" y="1270" width="313" height="50" as="geometry" />
        </mxCell>
        <mxCell id="WCMMu7L2FQIAezlBjaeM-44" style="edgeStyle=orthogonalEdgeStyle;rounded=0;orthogonalLoop=1;jettySize=auto;html=1;exitX=1;exitY=0.5;exitDx=0;exitDy=0;entryX=0.5;entryY=0;entryDx=0;entryDy=0;curved=1;dashed=1;startArrow=classicThin;startFill=1;" edge="1" parent="1" source="WCMMu7L2FQIAezlBjaeM-47" target="WCMMu7L2FQIAezlBjaeM-68">
          <mxGeometry relative="1" as="geometry">
            <Array as="points">
              <mxPoint x="2320" y="1197" />
              <mxPoint x="2320" y="1550" />
              <mxPoint x="2430" y="1550" />
            </Array>
          </mxGeometry>
        </mxCell>
        <mxCell id="WCMMu7L2FQIAezlBjaeM-45" value="实例化前后" style="edgeLabel;html=1;align=center;verticalAlign=middle;resizable=0;points=[];fontStyle=1" vertex="1" connectable="0" parent="WCMMu7L2FQIAezlBjaeM-44">
          <mxGeometry x="-0.0714" relative="1" as="geometry">
            <mxPoint as="offset" />
          </mxGeometry>
        </mxCell>
        <mxCell id="WCMMu7L2FQIAezlBjaeM-46" style="edgeStyle=orthogonalEdgeStyle;rounded=0;orthogonalLoop=1;jettySize=auto;html=1;exitX=1;exitY=0.5;exitDx=0;exitDy=0;startArrow=none;startFill=0;" edge="1" parent="1" source="WCMMu7L2FQIAezlBjaeM-47" target="WCMMu7L2FQIAezlBjaeM-132">
          <mxGeometry relative="1" as="geometry" />
        </mxCell>
        <mxCell id="WCMMu7L2FQIAezlBjaeM-47" value="&lt;span style=&quot;font-size: 13.0667px&quot;&gt;在实例化前调用InstantiationAwareBeanPostProcessor的postProcessBeforeInstantiation方法&lt;/span&gt;&lt;span style=&quot;font-size: 13.0667px&quot;&gt;&lt;br&gt;&lt;/span&gt;" style="rounded=1;whiteSpace=wrap;html=1;" vertex="1" parent="1">
          <mxGeometry x="1900" y="1170" width="293" height="55" as="geometry" />
        </mxCell>
        <mxCell id="WCMMu7L2FQIAezlBjaeM-48" style="edgeStyle=orthogonalEdgeStyle;rounded=0;orthogonalLoop=1;jettySize=auto;html=1;exitX=1;exitY=0.5;exitDx=0;exitDy=0;entryX=0;entryY=0.5;entryDx=0;entryDy=0;" edge="1" parent="1" source="WCMMu7L2FQIAezlBjaeM-54" target="WCMMu7L2FQIAezlBjaeM-55">
          <mxGeometry relative="1" as="geometry" />
        </mxCell>
        <mxCell id="WCMMu7L2FQIAezlBjaeM-49" style="edgeStyle=orthogonalEdgeStyle;rounded=0;orthogonalLoop=1;jettySize=auto;html=1;exitX=1;exitY=0.5;exitDx=0;exitDy=0;entryX=0;entryY=0.5;entryDx=0;entryDy=0;" edge="1" parent="1" source="WCMMu7L2FQIAezlBjaeM-54" target="WCMMu7L2FQIAezlBjaeM-57">
          <mxGeometry relative="1" as="geometry" />
        </mxCell>
        <mxCell id="WCMMu7L2FQIAezlBjaeM-50" style="edgeStyle=orthogonalEdgeStyle;rounded=0;orthogonalLoop=1;jettySize=auto;html=1;exitX=1;exitY=0.5;exitDx=0;exitDy=0;entryX=0;entryY=0.5;entryDx=0;entryDy=0;" edge="1" parent="1" source="WCMMu7L2FQIAezlBjaeM-54" target="WCMMu7L2FQIAezlBjaeM-67">
          <mxGeometry relative="1" as="geometry" />
        </mxCell>
        <mxCell id="WCMMu7L2FQIAezlBjaeM-51" style="edgeStyle=orthogonalEdgeStyle;rounded=0;orthogonalLoop=1;jettySize=auto;html=1;exitX=1;exitY=0.5;exitDx=0;exitDy=0;entryX=0;entryY=0.5;entryDx=0;entryDy=0;startArrow=none;startFill=0;" edge="1" parent="1" source="WCMMu7L2FQIAezlBjaeM-54" target="WCMMu7L2FQIAezlBjaeM-80">
          <mxGeometry relative="1" as="geometry" />
        </mxCell>
        <mxCell id="WCMMu7L2FQIAezlBjaeM-52" style="edgeStyle=orthogonalEdgeStyle;rounded=0;orthogonalLoop=1;jettySize=auto;html=1;exitX=1;exitY=0.5;exitDx=0;exitDy=0;entryX=0;entryY=0.5;entryDx=0;entryDy=0;startArrow=none;startFill=0;" edge="1" parent="1" source="WCMMu7L2FQIAezlBjaeM-54" target="WCMMu7L2FQIAezlBjaeM-102">
          <mxGeometry relative="1" as="geometry" />
        </mxCell>
        <mxCell id="WCMMu7L2FQIAezlBjaeM-53" style="edgeStyle=orthogonalEdgeStyle;rounded=0;orthogonalLoop=1;jettySize=auto;html=1;exitX=1;exitY=0.5;exitDx=0;exitDy=0;entryX=0;entryY=0.5;entryDx=0;entryDy=0;startArrow=none;startFill=0;" edge="1" parent="1" source="WCMMu7L2FQIAezlBjaeM-54" target="WCMMu7L2FQIAezlBjaeM-124">
          <mxGeometry relative="1" as="geometry" />
        </mxCell>
        <mxCell id="WCMMu7L2FQIAezlBjaeM-142" style="edgeStyle=orthogonalEdgeStyle;rounded=0;orthogonalLoop=1;jettySize=auto;html=1;exitX=1;exitY=0.5;exitDx=0;exitDy=0;entryX=0;entryY=0.5;entryDx=0;entryDy=0;" edge="1" parent="1" source="WCMMu7L2FQIAezlBjaeM-54" target="WCMMu7L2FQIAezlBjaeM-139">
          <mxGeometry relative="1" as="geometry" />
        </mxCell>
        <mxCell id="WCMMu7L2FQIAezlBjaeM-54" value="&lt;span style=&quot;font-size: 13.0667px&quot;&gt;AbstractAutowireCapableBeanFactory&lt;/span&gt;&lt;span style=&quot;font-size: 13.0667px&quot;&gt;.java&lt;/span&gt;&lt;span style=&quot;font-size: 13.0667px&quot;&gt;&lt;br&gt;&lt;/span&gt;&lt;span style=&quot;font-size: 13.0667px&quot;&gt;doCreateBean(beanName, mbdToUse, args)&lt;/span&gt;" style="rounded=1;whiteSpace=wrap;html=1;" vertex="1" parent="1">
          <mxGeometry x="1497" y="1370" width="283" height="50" as="geometry" />
        </mxCell>
        <mxCell id="WCMMu7L2FQIAezlBjaeM-55" value="&lt;span style=&quot;font-size: 13.0667px&quot;&gt;根据推断构造方法并创建类对象实例AbstractAutowireCapableBeanFactory&lt;/span&gt;&lt;span style=&quot;font-size: 13.0667px&quot;&gt;.java&lt;/span&gt;&lt;span style=&quot;font-size: 13.0667px&quot;&gt;&lt;br&gt;&lt;/span&gt;&lt;span style=&quot;font-size: 13.0667px&quot;&gt;createBeanInstance(beanName, mbd, args)&lt;/span&gt;" style="rounded=1;whiteSpace=wrap;html=1;fillColor=#e1d5e7;strokeColor=#9673a6;" vertex="1" parent="1">
          <mxGeometry x="1900" y="1290" width="280" height="60" as="geometry" />
        </mxCell>
        <mxCell id="WCMMu7L2FQIAezlBjaeM-56" value="可能出现" style="edgeStyle=orthogonalEdgeStyle;rounded=0;orthogonalLoop=1;jettySize=auto;html=1;exitX=1;exitY=0.5;exitDx=0;exitDy=0;" edge="1" parent="1" source="WCMMu7L2FQIAezlBjaeM-57" target="WCMMu7L2FQIAezlBjaeM-59">
          <mxGeometry relative="1" as="geometry" />
        </mxCell>
        <mxCell id="WCMMu7L2FQIAezlBjaeM-57" value="&lt;div&gt;&lt;span style=&quot;font-size: 13.0667px&quot;&gt;判断是否可能出现循环依赖&lt;/span&gt;&lt;/div&gt;&lt;div&gt;&lt;span style=&quot;font-size: 13.0667px&quot;&gt;(mbd.isSingleton() &amp;amp;&amp;amp; this.allowCircularReferences &amp;amp;&amp;amp;&lt;/span&gt;&lt;/div&gt;&lt;div&gt;&lt;span style=&quot;font-size: 13.0667px&quot;&gt;&lt;span&gt;    &lt;/span&gt;isSingletonCurrentlyInCreation(beanName))&lt;/span&gt;&lt;/div&gt;" style="rhombus;whiteSpace=wrap;html=1;fillColor=#e1d5e7;strokeColor=#9673a6;" vertex="1" parent="1">
          <mxGeometry x="1900" y="1646.53" width="390" height="120" as="geometry" />
        </mxCell>
        <mxCell id="WCMMu7L2FQIAezlBjaeM-58" style="edgeStyle=orthogonalEdgeStyle;rounded=0;orthogonalLoop=1;jettySize=auto;html=1;exitX=1;exitY=0.5;exitDx=0;exitDy=0;entryX=0;entryY=0.5;entryDx=0;entryDy=0;" edge="1" parent="1" source="WCMMu7L2FQIAezlBjaeM-59" target="WCMMu7L2FQIAezlBjaeM-61">
          <mxGeometry relative="1" as="geometry" />
        </mxCell>
        <mxCell id="WCMMu7L2FQIAezlBjaeM-59" value="&lt;span style=&quot;font-size: 13.0667px&quot;&gt;addSingletonFactory(beanName, () -&amp;gt; getEarlyBeanReference(beanName, mbd, bean));&lt;/span&gt;" style="rounded=1;whiteSpace=wrap;html=1;" vertex="1" parent="1">
          <mxGeometry x="2380" y="1676.53" width="280" height="60" as="geometry" />
        </mxCell>
        <mxCell id="WCMMu7L2FQIAezlBjaeM-60" value="是" style="edgeStyle=orthogonalEdgeStyle;rounded=0;orthogonalLoop=1;jettySize=auto;html=1;exitX=1;exitY=0.5;exitDx=0;exitDy=0;" edge="1" parent="1" source="WCMMu7L2FQIAezlBjaeM-61" target="WCMMu7L2FQIAezlBjaeM-62">
          <mxGeometry x="-0.25" relative="1" as="geometry">
            <mxPoint x="3100" y="1706.53" as="targetPoint" />
            <mxPoint as="offset" />
          </mxGeometry>
        </mxCell>
        <mxCell id="WCMMu7L2FQIAezlBjaeM-61" value="&lt;span style=&quot;font-size: 13.0667px&quot;&gt;&amp;nbsp;() -&amp;gt; getEarlyBeanReference(beanName, mbd, bean)主要用来判断是否需要 AOP 如果需要返回代理Bean对象，如果不需要就返回原始Bean对象&lt;/span&gt;" style="rhombus;whiteSpace=wrap;html=1;" vertex="1" parent="1">
          <mxGeometry x="2700" y="1646.53" width="310" height="120" as="geometry" />
        </mxCell>
        <mxCell id="WCMMu7L2FQIAezlBjaeM-62" value="&lt;span style=&quot;font-size: 13.0667px&quot;&gt;调用AbstractAutoProxyCreator.java的&lt;/span&gt;&lt;span style=&quot;font-size: 13.0667px&quot;&gt;getEarlyBeanReference方法，创建代理对象&lt;/span&gt;" style="rounded=1;whiteSpace=wrap;html=1;" vertex="1" parent="1">
          <mxGeometry x="3090" y="1676.53" width="280" height="60" as="geometry" />
        </mxCell>
        <mxCell id="WCMMu7L2FQIAezlBjaeM-63" style="edgeStyle=orthogonalEdgeStyle;rounded=0;orthogonalLoop=1;jettySize=auto;html=1;exitX=1;exitY=0.5;exitDx=0;exitDy=0;entryX=0;entryY=0.5;entryDx=0;entryDy=0;" edge="1" parent="1" source="WCMMu7L2FQIAezlBjaeM-67" target="WCMMu7L2FQIAezlBjaeM-68">
          <mxGeometry relative="1" as="geometry" />
        </mxCell>
        <mxCell id="WCMMu7L2FQIAezlBjaeM-64" style="edgeStyle=orthogonalEdgeStyle;rounded=0;orthogonalLoop=1;jettySize=auto;html=1;exitX=1;exitY=0.5;exitDx=0;exitDy=0;entryX=0;entryY=0.5;entryDx=0;entryDy=0;startArrow=none;startFill=0;" edge="1" parent="1" source="WCMMu7L2FQIAezlBjaeM-67" target="WCMMu7L2FQIAezlBjaeM-69">
          <mxGeometry relative="1" as="geometry" />
        </mxCell>
        <mxCell id="WCMMu7L2FQIAezlBjaeM-65" style="edgeStyle=orthogonalEdgeStyle;rounded=0;orthogonalLoop=1;jettySize=auto;html=1;exitX=1;exitY=0.5;exitDx=0;exitDy=0;entryX=0;entryY=0.5;entryDx=0;entryDy=0;startArrow=none;startFill=0;" edge="1" parent="1" source="WCMMu7L2FQIAezlBjaeM-67" target="WCMMu7L2FQIAezlBjaeM-73">
          <mxGeometry relative="1" as="geometry" />
        </mxCell>
        <mxCell id="WCMMu7L2FQIAezlBjaeM-66" style="edgeStyle=orthogonalEdgeStyle;rounded=0;orthogonalLoop=1;jettySize=auto;html=1;exitX=1;exitY=0.5;exitDx=0;exitDy=0;entryX=0;entryY=0.5;entryDx=0;entryDy=0;startArrow=none;startFill=0;" edge="1" parent="1" source="WCMMu7L2FQIAezlBjaeM-67" target="WCMMu7L2FQIAezlBjaeM-97">
          <mxGeometry relative="1" as="geometry" />
        </mxCell>
        <mxCell id="WCMMu7L2FQIAezlBjaeM-67" value="&lt;span style=&quot;font-size: 13.0667px&quot;&gt;// 填充属性&lt;br&gt;AbstractAutowireCapableBeanFactory&lt;/span&gt;&lt;span style=&quot;font-size: 13.0667px&quot;&gt;.java&lt;/span&gt;&lt;span style=&quot;font-size: 13.0667px&quot;&gt;&lt;br&gt;&lt;/span&gt;&lt;span style=&quot;font-size: 13.0667px&quot;&gt;populateBean(beanName, mbd, instanceWrapper);&lt;/span&gt;" style="rounded=1;whiteSpace=wrap;html=1;fillColor=#e1d5e7;strokeColor=#9673a6;" vertex="1" parent="1">
          <mxGeometry x="1900" y="1966.53" width="280" height="60" as="geometry" />
        </mxCell>
        <mxCell id="WCMMu7L2FQIAezlBjaeM-68" value="&lt;span style=&quot;font-size: 13.0667px&quot;&gt;在实例化后调用InstantiationAwareBeanPostProcessor的postProcessAfterInstantiation方法&lt;/span&gt;" style="rounded=1;whiteSpace=wrap;html=1;fillColor=#e1d5e7;strokeColor=#9673a6;" vertex="1" parent="1">
          <mxGeometry x="2290" y="1906.53" width="280" height="60" as="geometry" />
        </mxCell>
        <mxCell id="WCMMu7L2FQIAezlBjaeM-69" value="&lt;span style=&quot;font-size: 13.0667px&quot;&gt;解析@Bean(autowire=Autowire.BY_TYPE/NAME)注解&lt;/span&gt;&lt;br&gt;&lt;span style=&quot;font-size: 13.0667px&quot;&gt;AbstractAutowireCapableBeanFactory&lt;/span&gt;&lt;span style=&quot;font-size: 13.0667px&quot;&gt;.java&lt;br&gt;mbd.getResolvedAutowireMode();&lt;/span&gt;" style="rounded=1;whiteSpace=wrap;html=1;" vertex="1" parent="1">
          <mxGeometry x="2290" y="2046.53" width="331" height="70" as="geometry" />
        </mxCell>
        <mxCell id="WCMMu7L2FQIAezlBjaeM-70" style="edgeStyle=orthogonalEdgeStyle;rounded=0;orthogonalLoop=1;jettySize=auto;html=1;exitX=1;exitY=0.5;exitDx=0;exitDy=0;entryX=0;entryY=0.5;entryDx=0;entryDy=0;startArrow=none;startFill=0;" edge="1" parent="1" source="WCMMu7L2FQIAezlBjaeM-73" target="WCMMu7L2FQIAezlBjaeM-75">
          <mxGeometry relative="1" as="geometry" />
        </mxCell>
        <mxCell id="WCMMu7L2FQIAezlBjaeM-71" style="edgeStyle=orthogonalEdgeStyle;rounded=0;orthogonalLoop=1;jettySize=auto;html=1;exitX=1;exitY=0.5;exitDx=0;exitDy=0;entryX=0;entryY=0.5;entryDx=0;entryDy=0;startArrow=none;startFill=0;" edge="1" parent="1" source="WCMMu7L2FQIAezlBjaeM-73" target="WCMMu7L2FQIAezlBjaeM-93">
          <mxGeometry relative="1" as="geometry" />
        </mxCell>
        <mxCell id="WCMMu7L2FQIAezlBjaeM-72" value="解析@Autowire&lt;br&gt;等注解" style="edgeLabel;html=1;align=center;verticalAlign=middle;resizable=0;points=[];" vertex="1" connectable="0" parent="WCMMu7L2FQIAezlBjaeM-71">
          <mxGeometry x="-0.5887" relative="1" as="geometry">
            <mxPoint x="8" as="offset" />
          </mxGeometry>
        </mxCell>
        <mxCell id="WCMMu7L2FQIAezlBjaeM-73" value="&lt;span style=&quot;font-size: 13.0667px&quot;&gt;AbstractAutowireCapableBeanFactory&lt;/span&gt;&lt;span style=&quot;font-size: 13.0667px&quot;&gt;.java&lt;br&gt;&lt;/span&gt;&lt;span style=&quot;font-size: 13.0667px&quot;&gt;ibp.postProcessProperties(...)&lt;br&gt;&lt;/span&gt;" style="rounded=1;whiteSpace=wrap;html=1;" vertex="1" parent="1">
          <mxGeometry x="2290" y="2206.53" width="310" height="48" as="geometry" />
        </mxCell>
        <mxCell id="WCMMu7L2FQIAezlBjaeM-74" style="edgeStyle=orthogonalEdgeStyle;rounded=0;orthogonalLoop=1;jettySize=auto;html=1;exitX=1;exitY=0.5;exitDx=0;exitDy=0;entryX=0;entryY=0.5;entryDx=0;entryDy=0;startArrow=none;startFill=0;" edge="1" parent="1" source="WCMMu7L2FQIAezlBjaeM-75" target="WCMMu7L2FQIAezlBjaeM-86">
          <mxGeometry relative="1" as="geometry" />
        </mxCell>
        <mxCell id="WCMMu7L2FQIAezlBjaeM-177" style="edgeStyle=orthogonalEdgeStyle;rounded=0;orthogonalLoop=1;jettySize=auto;html=1;exitX=1;exitY=0.5;exitDx=0;exitDy=0;entryX=0;entryY=0.5;entryDx=0;entryDy=0;" edge="1" parent="1" source="WCMMu7L2FQIAezlBjaeM-75" target="WCMMu7L2FQIAezlBjaeM-176">
          <mxGeometry relative="1" as="geometry">
            <mxPoint x="3870" y="2260" as="targetPoint" />
          </mxGeometry>
        </mxCell>
        <mxCell id="WCMMu7L2FQIAezlBjaeM-75" value="AutowiredAnnotationBeanPostProcessor.java&lt;br&gt;postProcessProperties()" style="rounded=1;whiteSpace=wrap;html=1;" vertex="1" parent="1">
          <mxGeometry x="3480" y="2206.53" width="310" height="48" as="geometry" />
        </mxCell>
        <mxCell id="WCMMu7L2FQIAezlBjaeM-76" style="edgeStyle=orthogonalEdgeStyle;rounded=0;orthogonalLoop=1;jettySize=auto;html=1;exitX=1;exitY=0.5;exitDx=0;exitDy=0;entryX=0;entryY=0.5;entryDx=0;entryDy=0;startArrow=none;startFill=0;" edge="1" parent="1" source="WCMMu7L2FQIAezlBjaeM-80" target="WCMMu7L2FQIAezlBjaeM-82">
          <mxGeometry relative="1" as="geometry" />
        </mxCell>
        <mxCell id="WCMMu7L2FQIAezlBjaeM-77" value="功能之一" style="edgeLabel;html=1;align=center;verticalAlign=middle;resizable=0;points=[];" vertex="1" connectable="0" parent="WCMMu7L2FQIAezlBjaeM-76">
          <mxGeometry x="0.093" relative="1" as="geometry">
            <mxPoint as="offset" />
          </mxGeometry>
        </mxCell>
        <mxCell id="WCMMu7L2FQIAezlBjaeM-78" style="edgeStyle=orthogonalEdgeStyle;rounded=0;orthogonalLoop=1;jettySize=auto;html=1;exitX=1;exitY=0.5;exitDx=0;exitDy=0;entryX=0;entryY=0.75;entryDx=0;entryDy=0;startArrow=none;startFill=0;" edge="1" parent="1" source="WCMMu7L2FQIAezlBjaeM-80" target="WCMMu7L2FQIAezlBjaeM-89">
          <mxGeometry relative="1" as="geometry" />
        </mxCell>
        <mxCell id="WCMMu7L2FQIAezlBjaeM-79" value="功能之二" style="edgeLabel;html=1;align=center;verticalAlign=middle;resizable=0;points=[];" vertex="1" connectable="0" parent="WCMMu7L2FQIAezlBjaeM-78">
          <mxGeometry x="0.002" y="1" relative="1" as="geometry">
            <mxPoint as="offset" />
          </mxGeometry>
        </mxCell>
        <mxCell id="WCMMu7L2FQIAezlBjaeM-80" value="&lt;span style=&quot;font-size: 13.0667px&quot;&gt;AbstractAutowireCapableBeanFactory&lt;/span&gt;&lt;span style=&quot;font-size: 13.0667px&quot;&gt;.java&lt;/span&gt;&lt;span style=&quot;font-size: 13.0667px&quot;&gt;&lt;br&gt;&lt;/span&gt;&lt;span style=&quot;font-size: 13.0667px&quot;&gt;applyMergedBeanDefinitionPostProcessors(mbd, beanType, beanName);&lt;/span&gt;" style="rounded=1;whiteSpace=wrap;html=1;" vertex="1" parent="1">
          <mxGeometry x="1900" y="1460" width="280" height="60" as="geometry" />
        </mxCell>
        <mxCell id="WCMMu7L2FQIAezlBjaeM-81" style="edgeStyle=orthogonalEdgeStyle;rounded=0;orthogonalLoop=1;jettySize=auto;html=1;exitX=1;exitY=0.5;exitDx=0;exitDy=0;entryX=0;entryY=0.5;entryDx=0;entryDy=0;startArrow=none;startFill=0;" edge="1" parent="1" source="WCMMu7L2FQIAezlBjaeM-82" target="WCMMu7L2FQIAezlBjaeM-84">
          <mxGeometry relative="1" as="geometry" />
        </mxCell>
        <mxCell id="WCMMu7L2FQIAezlBjaeM-82" value="&lt;span style=&quot;font-size: 13.0667px&quot;&gt;调用AutowiredAnnotationBeanPostProcessor的postProcessMergedBeanDefinition方法&lt;/span&gt;" style="rounded=1;whiteSpace=wrap;html=1;" vertex="1" parent="1">
          <mxGeometry x="2380" y="1350" width="280" height="60" as="geometry" />
        </mxCell>
        <mxCell id="WCMMu7L2FQIAezlBjaeM-83" style="edgeStyle=orthogonalEdgeStyle;rounded=0;orthogonalLoop=1;jettySize=auto;html=1;startArrow=none;startFill=0;entryX=0.5;entryY=0;entryDx=0;entryDy=0;dashed=1;exitX=0.471;exitY=1.036;exitDx=0;exitDy=0;exitPerimeter=0;" edge="1" parent="1" source="WCMMu7L2FQIAezlBjaeM-84" target="WCMMu7L2FQIAezlBjaeM-87">
          <mxGeometry relative="1" as="geometry">
            <mxPoint x="3620" y="2200" as="targetPoint" />
            <Array as="points">
              <mxPoint x="3635" y="2130" />
              <mxPoint x="4425" y="2130" />
            </Array>
            <mxPoint x="3590" y="1300" as="sourcePoint" />
          </mxGeometry>
        </mxCell>
        <mxCell id="WCMMu7L2FQIAezlBjaeM-144" style="edgeStyle=orthogonalEdgeStyle;rounded=0;orthogonalLoop=1;jettySize=auto;html=1;exitX=1;exitY=0.5;exitDx=0;exitDy=0;entryX=0;entryY=0.5;entryDx=0;entryDy=0;" edge="1" parent="1" source="WCMMu7L2FQIAezlBjaeM-84" target="WCMMu7L2FQIAezlBjaeM-143">
          <mxGeometry relative="1" as="geometry" />
        </mxCell>
        <mxCell id="WCMMu7L2FQIAezlBjaeM-84" value="&lt;span style=&quot;font-size: 13.0667px&quot;&gt;解析@Autowired，@&lt;/span&gt;&lt;span style=&quot;font-size: 13.0667px&quot;&gt;Value，@???，并放入cache中&lt;/span&gt;&lt;br&gt;&lt;span style=&quot;font-size: 13.0667px&quot;&gt;findAutowiringMetadata(beanName, beanType, null);&lt;/span&gt;" style="rounded=1;whiteSpace=wrap;html=1;" vertex="1" parent="1">
          <mxGeometry x="3480" y="1345" width="330" height="70" as="geometry" />
        </mxCell>
        <mxCell id="WCMMu7L2FQIAezlBjaeM-85" style="edgeStyle=orthogonalEdgeStyle;rounded=0;orthogonalLoop=1;jettySize=auto;html=1;exitX=1;exitY=0.5;exitDx=0;exitDy=0;entryX=0;entryY=0.5;entryDx=0;entryDy=0;startArrow=none;startFill=0;" edge="1" parent="1" source="WCMMu7L2FQIAezlBjaeM-86" target="WCMMu7L2FQIAezlBjaeM-87">
          <mxGeometry relative="1" as="geometry" />
        </mxCell>
        <mxCell id="WCMMu7L2FQIAezlBjaeM-86" value="AutowiredAnnotationBeanPostProcessor.java&lt;br&gt;findAutowiringMetadata(beanName, bean.getClass(), pvs)" style="rounded=1;whiteSpace=wrap;html=1;" vertex="1" parent="1">
          <mxGeometry x="4010" y="2206.53" width="310" height="48" as="geometry" />
        </mxCell>
        <mxCell id="WCMMu7L2FQIAezlBjaeM-87" value="直接从cache中获取，因为在之前已经解析过了&lt;br&gt;this.injectionMetadataCache.get(cacheKey);" style="rounded=1;whiteSpace=wrap;html=1;" vertex="1" parent="1">
          <mxGeometry x="4410" y="2206.53" width="310" height="48" as="geometry" />
        </mxCell>
        <mxCell id="WCMMu7L2FQIAezlBjaeM-88" style="edgeStyle=orthogonalEdgeStyle;rounded=0;orthogonalLoop=1;jettySize=auto;html=1;exitX=1;exitY=0.5;exitDx=0;exitDy=0;startArrow=none;startFill=0;" edge="1" parent="1" source="WCMMu7L2FQIAezlBjaeM-89" target="WCMMu7L2FQIAezlBjaeM-91">
          <mxGeometry relative="1" as="geometry" />
        </mxCell>
        <mxCell id="WCMMu7L2FQIAezlBjaeM-89" value="&lt;span style=&quot;font-size: 13.0667px&quot;&gt;调用CommonAnnotationBeanPostProcessor的postProcessMergedBeanDefinition方法&lt;/span&gt;" style="rounded=1;whiteSpace=wrap;html=1;" vertex="1" parent="1">
          <mxGeometry x="2380" y="1510" width="280" height="60" as="geometry" />
        </mxCell>
        <mxCell id="WCMMu7L2FQIAezlBjaeM-90" style="edgeStyle=orthogonalEdgeStyle;rounded=0;orthogonalLoop=1;jettySize=auto;html=1;exitX=1;exitY=0.5;exitDx=0;exitDy=0;entryX=1;entryY=0.5;entryDx=0;entryDy=0;startArrow=none;startFill=0;dashed=1;" edge="1" parent="1" source="WCMMu7L2FQIAezlBjaeM-91" target="WCMMu7L2FQIAezlBjaeM-96">
          <mxGeometry relative="1" as="geometry" />
        </mxCell>
        <mxCell id="WCMMu7L2FQIAezlBjaeM-91" value="&lt;span style=&quot;font-size: 13.0667px&quot;&gt;解析@A&lt;/span&gt;&lt;span style=&quot;font-size: 13.0667px&quot;&gt;Resource，并放入cache中&lt;/span&gt;&lt;br&gt;&lt;span style=&quot;font-size: 13.0667px&quot;&gt;findResourceMetadata(beanName, beanType, null);&lt;/span&gt;" style="rounded=1;whiteSpace=wrap;html=1;" vertex="1" parent="1">
          <mxGeometry x="3480" y="1505" width="330" height="70" as="geometry" />
        </mxCell>
        <mxCell id="WCMMu7L2FQIAezlBjaeM-92" style="edgeStyle=orthogonalEdgeStyle;rounded=0;orthogonalLoop=1;jettySize=auto;html=1;exitX=1;exitY=0.5;exitDx=0;exitDy=0;entryX=0;entryY=0.5;entryDx=0;entryDy=0;startArrow=none;startFill=0;" edge="1" parent="1" source="WCMMu7L2FQIAezlBjaeM-93" target="WCMMu7L2FQIAezlBjaeM-95">
          <mxGeometry relative="1" as="geometry" />
        </mxCell>
        <mxCell id="WCMMu7L2FQIAezlBjaeM-93" value="CommonAnnotationBeanPostProcessor.java&lt;br&gt;postProcessProperties()" style="rounded=1;whiteSpace=wrap;html=1;" vertex="1" parent="1">
          <mxGeometry x="2720" y="2310" width="310" height="48" as="geometry" />
        </mxCell>
        <mxCell id="WCMMu7L2FQIAezlBjaeM-94" style="edgeStyle=orthogonalEdgeStyle;rounded=0;orthogonalLoop=1;jettySize=auto;html=1;exitX=1;exitY=0.5;exitDx=0;exitDy=0;startArrow=none;startFill=0;" edge="1" parent="1" source="WCMMu7L2FQIAezlBjaeM-95" target="WCMMu7L2FQIAezlBjaeM-96">
          <mxGeometry relative="1" as="geometry" />
        </mxCell>
        <mxCell id="WCMMu7L2FQIAezlBjaeM-95" value="findResourceMetadata(beanName, bean.getClass(), pvs)" style="rounded=1;whiteSpace=wrap;html=1;" vertex="1" parent="1">
          <mxGeometry x="3090" y="2310" width="310" height="48" as="geometry" />
        </mxCell>
        <mxCell id="WCMMu7L2FQIAezlBjaeM-96" value="直接从cache中获取，因为在之前已经解析过了&lt;br&gt;this.injectionMetadataCache.get(cacheKey)" style="rounded=1;whiteSpace=wrap;html=1;" vertex="1" parent="1">
          <mxGeometry x="3480" y="2310" width="310" height="48" as="geometry" />
        </mxCell>
        <mxCell id="WCMMu7L2FQIAezlBjaeM-97" value="&lt;span style=&quot;font-size: 13.0667px&quot;&gt;applyPropertyValues(beanName, mbd, bw, pvs);&lt;/span&gt;" style="rounded=1;whiteSpace=wrap;html=1;" vertex="1" parent="1">
          <mxGeometry x="2290" y="2390" width="310" height="48" as="geometry" />
        </mxCell>
        <mxCell id="WCMMu7L2FQIAezlBjaeM-98" style="edgeStyle=orthogonalEdgeStyle;rounded=0;orthogonalLoop=1;jettySize=auto;html=1;exitX=1;exitY=0.5;exitDx=0;exitDy=0;entryX=0;entryY=0.5;entryDx=0;entryDy=0;startArrow=none;startFill=0;" edge="1" parent="1" source="WCMMu7L2FQIAezlBjaeM-102" target="WCMMu7L2FQIAezlBjaeM-105">
          <mxGeometry relative="1" as="geometry" />
        </mxCell>
        <mxCell id="WCMMu7L2FQIAezlBjaeM-99" style="edgeStyle=orthogonalEdgeStyle;rounded=0;orthogonalLoop=1;jettySize=auto;html=1;exitX=1;exitY=0.5;exitDx=0;exitDy=0;entryX=0;entryY=0.5;entryDx=0;entryDy=0;startArrow=none;startFill=0;" edge="1" parent="1" source="WCMMu7L2FQIAezlBjaeM-102" target="WCMMu7L2FQIAezlBjaeM-108">
          <mxGeometry relative="1" as="geometry" />
        </mxCell>
        <mxCell id="WCMMu7L2FQIAezlBjaeM-100" style="edgeStyle=orthogonalEdgeStyle;rounded=0;orthogonalLoop=1;jettySize=auto;html=1;exitX=1;exitY=0.5;exitDx=0;exitDy=0;entryX=0;entryY=0.5;entryDx=0;entryDy=0;startArrow=none;startFill=0;" edge="1" parent="1" source="WCMMu7L2FQIAezlBjaeM-102" target="WCMMu7L2FQIAezlBjaeM-112">
          <mxGeometry relative="1" as="geometry" />
        </mxCell>
        <mxCell id="WCMMu7L2FQIAezlBjaeM-101" style="edgeStyle=orthogonalEdgeStyle;rounded=0;orthogonalLoop=1;jettySize=auto;html=1;exitX=1;exitY=0.5;exitDx=0;exitDy=0;entryX=0;entryY=0.5;entryDx=0;entryDy=0;startArrow=none;startFill=0;" edge="1" parent="1" source="WCMMu7L2FQIAezlBjaeM-102" target="WCMMu7L2FQIAezlBjaeM-121">
          <mxGeometry relative="1" as="geometry" />
        </mxCell>
        <mxCell id="WCMMu7L2FQIAezlBjaeM-102" value="&lt;span style=&quot;font-size: 13.0667px&quot;&gt;// 初始化bean&lt;br&gt;AbstractAutowireCapableBeanFactory&lt;/span&gt;&lt;span style=&quot;font-size: 13.0667px&quot;&gt;.java&lt;/span&gt;&lt;span style=&quot;font-size: 13.0667px&quot;&gt;&lt;br&gt;&lt;/span&gt;&lt;span style=&quot;font-size: 13.0667px&quot;&gt;initializeBean(beanName, exposedObject, mbd);&lt;/span&gt;" style="rounded=1;whiteSpace=wrap;html=1;fillColor=#e1d5e7;strokeColor=#9673a6;" vertex="1" parent="1">
          <mxGeometry x="1900" y="2740" width="280" height="60" as="geometry" />
        </mxCell>
        <mxCell id="WCMMu7L2FQIAezlBjaeM-103" style="edgeStyle=orthogonalEdgeStyle;rounded=0;orthogonalLoop=1;jettySize=auto;html=1;exitX=1;exitY=0.5;exitDx=0;exitDy=0;entryX=0;entryY=0.5;entryDx=0;entryDy=0;startArrow=none;startFill=0;" edge="1" parent="1" source="WCMMu7L2FQIAezlBjaeM-105" target="WCMMu7L2FQIAezlBjaeM-106">
          <mxGeometry relative="1" as="geometry" />
        </mxCell>
        <mxCell id="WCMMu7L2FQIAezlBjaeM-104" value="处理aware" style="edgeLabel;html=1;align=center;verticalAlign=middle;resizable=0;points=[];" vertex="1" connectable="0" parent="WCMMu7L2FQIAezlBjaeM-103">
          <mxGeometry x="-0.2924" relative="1" as="geometry">
            <mxPoint x="8" as="offset" />
          </mxGeometry>
        </mxCell>
        <mxCell id="WCMMu7L2FQIAezlBjaeM-105" value="&lt;span style=&quot;font-size: 13.0667px&quot;&gt;AbstractAutowireCapableBeanFactory&lt;/span&gt;&lt;span style=&quot;font-size: 13.0667px&quot;&gt;.java&lt;/span&gt;&lt;span style=&quot;font-size: 13.0667px&quot;&gt;&lt;br&gt;&lt;/span&gt;&lt;span style=&quot;font-size: 13.0667px&quot;&gt;invokeAwareMethods(beanName, bean);&lt;/span&gt;" style="rounded=1;whiteSpace=wrap;html=1;fillColor=#e1d5e7;strokeColor=#9673a6;" vertex="1" parent="1">
          <mxGeometry x="2290" y="2530" width="280" height="60" as="geometry" />
        </mxCell>
        <mxCell id="WCMMu7L2FQIAezlBjaeM-106" value="&lt;span style=&quot;font-size: 13.0667px&quot;&gt;if (bean instanceof BeanNameAware)&lt;br&gt;&lt;/span&gt;if (bean instanceof BeanClassLoaderAware)&lt;br&gt;if (bean instanceof BeanFactoryAware)" style="rounded=1;whiteSpace=wrap;html=1;" vertex="1" parent="1">
          <mxGeometry x="2660" y="2530" width="280" height="60" as="geometry" />
        </mxCell>
        <mxCell id="WCMMu7L2FQIAezlBjaeM-107" style="edgeStyle=orthogonalEdgeStyle;rounded=0;orthogonalLoop=1;jettySize=auto;html=1;exitX=1;exitY=0.5;exitDx=0;exitDy=0;entryX=0;entryY=0.5;entryDx=0;entryDy=0;startArrow=none;startFill=0;" edge="1" parent="1" source="WCMMu7L2FQIAezlBjaeM-108" target="WCMMu7L2FQIAezlBjaeM-109">
          <mxGeometry relative="1" as="geometry" />
        </mxCell>
        <mxCell id="WCMMu7L2FQIAezlBjaeM-108" value="&lt;span style=&quot;font-size: 13.0667px&quot;&gt;AbstractAutowireCapableBeanFactory&lt;/span&gt;&lt;span style=&quot;font-size: 13.0667px&quot;&gt;.java&lt;/span&gt;&lt;span style=&quot;font-size: 13.0667px&quot;&gt;&lt;br&gt;&lt;/span&gt;&lt;span style=&quot;font-size: 13.0667px&quot;&gt;applyBeanPostProcessorsBeforeInitialization(wrappedBean, beanName);&lt;/span&gt;" style="rounded=1;whiteSpace=wrap;html=1;fillColor=#e1d5e7;strokeColor=#9673a6;" vertex="1" parent="1">
          <mxGeometry x="2290" y="2670" width="370" height="60" as="geometry" />
        </mxCell>
        <mxCell id="WCMMu7L2FQIAezlBjaeM-109" value="&lt;span style=&quot;font-size: 13.0667px&quot;&gt;调用初始化前的postProcessor&lt;br&gt;AbstractAutowireCapableBeanFactory&lt;/span&gt;&lt;span style=&quot;font-size: 13.0667px&quot;&gt;.java&lt;/span&gt;&lt;span style=&quot;font-size: 13.0667px&quot;&gt;&lt;br&gt;&lt;/span&gt;&lt;span style=&quot;font-size: 13.0667px&quot;&gt;processor.postProcessBeforeInitialization(result, beanName);&lt;/span&gt;" style="rounded=1;whiteSpace=wrap;html=1;" vertex="1" parent="1">
          <mxGeometry x="2700" y="2670" width="370" height="60" as="geometry" />
        </mxCell>
        <mxCell id="WCMMu7L2FQIAezlBjaeM-110" style="edgeStyle=orthogonalEdgeStyle;rounded=0;orthogonalLoop=1;jettySize=auto;html=1;exitX=1;exitY=0.5;exitDx=0;exitDy=0;entryX=0;entryY=0.5;entryDx=0;entryDy=0;startArrow=none;startFill=0;" edge="1" parent="1" source="WCMMu7L2FQIAezlBjaeM-112" target="WCMMu7L2FQIAezlBjaeM-115">
          <mxGeometry relative="1" as="geometry" />
        </mxCell>
        <mxCell id="WCMMu7L2FQIAezlBjaeM-111" style="edgeStyle=orthogonalEdgeStyle;rounded=0;orthogonalLoop=1;jettySize=auto;html=1;exitX=1;exitY=0.5;exitDx=0;exitDy=0;entryX=0;entryY=0.5;entryDx=0;entryDy=0;startArrow=none;startFill=0;" edge="1" parent="1" source="WCMMu7L2FQIAezlBjaeM-112" target="WCMMu7L2FQIAezlBjaeM-118">
          <mxGeometry relative="1" as="geometry" />
        </mxCell>
        <mxCell id="WCMMu7L2FQIAezlBjaeM-112" value="&lt;span style=&quot;font-size: 13.0667px&quot;&gt;调用初始化方法&lt;br&gt;&lt;/span&gt;&lt;span style=&quot;font-size: 13.0667px&quot;&gt;AbstractAutowireCapableBeanFactory&lt;/span&gt;&lt;span style=&quot;font-size: 13.0667px&quot;&gt;.java&lt;/span&gt;&lt;span style=&quot;font-size: 13.0667px&quot;&gt;&lt;br&gt;&lt;/span&gt;&lt;span style=&quot;font-size: 13.0667px&quot;&gt;invokeInitMethods(beanName, wrappedBean, mbd);&lt;/span&gt;" style="rounded=1;whiteSpace=wrap;html=1;fillColor=#e1d5e7;strokeColor=#9673a6;" vertex="1" parent="1">
          <mxGeometry x="2290" y="2890" width="340" height="50" as="geometry" />
        </mxCell>
        <mxCell id="WCMMu7L2FQIAezlBjaeM-113" style="edgeStyle=orthogonalEdgeStyle;rounded=0;orthogonalLoop=1;jettySize=auto;html=1;exitX=1;exitY=0.5;exitDx=0;exitDy=0;startArrow=none;startFill=0;" edge="1" parent="1" source="WCMMu7L2FQIAezlBjaeM-115" target="WCMMu7L2FQIAezlBjaeM-116">
          <mxGeometry relative="1" as="geometry" />
        </mxCell>
        <mxCell id="WCMMu7L2FQIAezlBjaeM-114" value="是" style="edgeLabel;html=1;align=center;verticalAlign=middle;resizable=0;points=[];" vertex="1" connectable="0" parent="WCMMu7L2FQIAezlBjaeM-113">
          <mxGeometry x="-0.4539" y="-2" relative="1" as="geometry">
            <mxPoint x="18" y="-2" as="offset" />
          </mxGeometry>
        </mxCell>
        <mxCell id="WCMMu7L2FQIAezlBjaeM-115" value="&lt;span style=&quot;font-size: 13.0667px&quot;&gt;是否是实现&lt;/span&gt;&lt;span style=&quot;font-size: 13.0667px&quot;&gt;InitializingBean接口&lt;/span&gt;&lt;br&gt;&lt;span style=&quot;font-size: 13.0667px&quot;&gt;bean instanceof InitializingBean&lt;/span&gt;" style="rhombus;whiteSpace=wrap;html=1;fillColor=#e1d5e7;strokeColor=#9673a6;" vertex="1" parent="1">
          <mxGeometry x="2680" y="2790" width="360" height="100" as="geometry" />
        </mxCell>
        <mxCell id="WCMMu7L2FQIAezlBjaeM-116" value="&lt;span style=&quot;font-size: 13.0667px&quot;&gt;调用afterPropertiesSet()方法&lt;/span&gt;" style="rounded=1;whiteSpace=wrap;html=1;" vertex="1" parent="1">
          <mxGeometry x="3110" y="2822.5" width="210" height="35" as="geometry" />
        </mxCell>
        <mxCell id="WCMMu7L2FQIAezlBjaeM-117" style="edgeStyle=orthogonalEdgeStyle;rounded=0;orthogonalLoop=1;jettySize=auto;html=1;exitX=1;exitY=0.5;exitDx=0;exitDy=0;entryX=0;entryY=0.5;entryDx=0;entryDy=0;startArrow=none;startFill=0;" edge="1" parent="1" source="WCMMu7L2FQIAezlBjaeM-118" target="WCMMu7L2FQIAezlBjaeM-119">
          <mxGeometry relative="1" as="geometry" />
        </mxCell>
        <mxCell id="WCMMu7L2FQIAezlBjaeM-118" value="&lt;span style=&quot;font-size: 13.0667px&quot;&gt;调用自定义初始化方法&lt;br&gt;invokeCustomInitMethod(beanName, bean, mbd);&lt;/span&gt;" style="rounded=1;whiteSpace=wrap;html=1;fillColor=#e1d5e7;strokeColor=#9673a6;" vertex="1" parent="1">
          <mxGeometry x="2680" y="2960" width="305" height="50" as="geometry" />
        </mxCell>
        <mxCell id="WCMMu7L2FQIAezlBjaeM-119" value="&lt;span style=&quot;font-size: 13.0667px&quot;&gt;调用自定义初始化方法&lt;/span&gt;&lt;br&gt;&lt;span style=&quot;font-size: 13.0667px&quot;&gt;methodToInvoke.invoke(bean);&lt;/span&gt;" style="rounded=1;whiteSpace=wrap;html=1;" vertex="1" parent="1">
          <mxGeometry x="3110" y="2960" width="215" height="50" as="geometry" />
        </mxCell>
        <mxCell id="WCMMu7L2FQIAezlBjaeM-120" style="edgeStyle=orthogonalEdgeStyle;rounded=0;orthogonalLoop=1;jettySize=auto;html=1;exitX=1;exitY=0.5;exitDx=0;exitDy=0;entryX=0;entryY=0.5;entryDx=0;entryDy=0;startArrow=none;startFill=0;" edge="1" parent="1" source="WCMMu7L2FQIAezlBjaeM-121" target="WCMMu7L2FQIAezlBjaeM-122">
          <mxGeometry relative="1" as="geometry" />
        </mxCell>
        <mxCell id="WCMMu7L2FQIAezlBjaeM-121" value="&lt;span style=&quot;font-size: 13.0667px&quot;&gt;AbstractAutowireCapableBeanFactory&lt;/span&gt;&lt;span style=&quot;font-size: 13.0667px&quot;&gt;.java&lt;/span&gt;&lt;span style=&quot;font-size: 13.0667px&quot;&gt;&lt;br&gt;&lt;/span&gt;&lt;span style=&quot;font-size: 13.0667px&quot;&gt;applyBeanPostProcessorsAfterInitialization(wrappedBean, beanName);&lt;/span&gt;" style="rounded=1;whiteSpace=wrap;html=1;fillColor=#e1d5e7;strokeColor=#9673a6;" vertex="1" parent="1">
          <mxGeometry x="2290" y="3110" width="370" height="60" as="geometry" />
        </mxCell>
        <mxCell id="WCMMu7L2FQIAezlBjaeM-122" value="&lt;span style=&quot;font-size: 13.0667px&quot;&gt;调用初始化后的postProcessor&lt;br&gt;AbstractAutowireCapableBeanFactory&lt;/span&gt;&lt;span style=&quot;font-size: 13.0667px&quot;&gt;.java&lt;/span&gt;&lt;span style=&quot;font-size: 13.0667px&quot;&gt;&lt;br&gt;&lt;/span&gt;&lt;span style=&quot;font-size: 13.0667px&quot;&gt;processor.postProcessAfterInitialization(result, beanName);&lt;/span&gt;" style="rounded=1;whiteSpace=wrap;html=1;" vertex="1" parent="1">
          <mxGeometry x="2700" y="3110" width="370" height="60" as="geometry" />
        </mxCell>
        <mxCell id="WCMMu7L2FQIAezlBjaeM-123" style="edgeStyle=orthogonalEdgeStyle;rounded=0;orthogonalLoop=1;jettySize=auto;html=1;exitX=1;exitY=0.5;exitDx=0;exitDy=0;entryX=0;entryY=0.5;entryDx=0;entryDy=0;startArrow=none;startFill=0;" edge="1" parent="1" source="WCMMu7L2FQIAezlBjaeM-124" target="WCMMu7L2FQIAezlBjaeM-125">
          <mxGeometry relative="1" as="geometry" />
        </mxCell>
        <mxCell id="WCMMu7L2FQIAezlBjaeM-124" value="&lt;div&gt;&lt;span style=&quot;font-size: 13.0667px&quot;&gt;if (exposedObject == bean) {&lt;/span&gt;&lt;/div&gt;&lt;div&gt;&lt;span style=&quot;font-size: 13.0667px&quot;&gt;&lt;span&gt;     &lt;/span&gt;exposedObject = earlySingletonReference;&lt;/span&gt;&lt;/div&gt;&lt;div&gt;&lt;span style=&quot;font-size: 13.0667px&quot;&gt;&lt;span&gt;    &lt;/span&gt;}&lt;/span&gt;&lt;/div&gt;" style="rounded=1;whiteSpace=wrap;html=1;" vertex="1" parent="1">
          <mxGeometry x="1900" y="3340" width="280" height="60" as="geometry" />
        </mxCell>
        <mxCell id="WCMMu7L2FQIAezlBjaeM-125" value="&lt;span style=&quot;font-size: 13.0667px&quot;&gt;如果这个bean同时存在循环依赖和AOP的情况需要保证A都是代理对象&lt;/span&gt;" style="rounded=1;whiteSpace=wrap;html=1;" vertex="1" parent="1">
          <mxGeometry x="2290" y="3340" width="280" height="60" as="geometry" />
        </mxCell>
        <mxCell id="WCMMu7L2FQIAezlBjaeM-126" style="edgeStyle=orthogonalEdgeStyle;rounded=0;orthogonalLoop=1;jettySize=auto;html=1;exitX=0.5;exitY=1;exitDx=0;exitDy=0;" edge="1" parent="1" source="WCMMu7L2FQIAezlBjaeM-130" target="WCMMu7L2FQIAezlBjaeM-32">
          <mxGeometry relative="1" as="geometry" />
        </mxCell>
        <mxCell id="WCMMu7L2FQIAezlBjaeM-127" value="缓存中没有" style="edgeLabel;html=1;align=center;verticalAlign=middle;resizable=0;points=[];" vertex="1" connectable="0" parent="WCMMu7L2FQIAezlBjaeM-126">
          <mxGeometry x="0.0333" relative="1" as="geometry">
            <mxPoint as="offset" />
          </mxGeometry>
        </mxCell>
        <mxCell id="WCMMu7L2FQIAezlBjaeM-128" value="" style="edgeStyle=orthogonalEdgeStyle;rounded=0;orthogonalLoop=1;jettySize=auto;html=1;" edge="1" parent="1" source="WCMMu7L2FQIAezlBjaeM-130" target="WCMMu7L2FQIAezlBjaeM-131">
          <mxGeometry relative="1" as="geometry" />
        </mxCell>
        <mxCell id="WCMMu7L2FQIAezlBjaeM-129" value="有" style="edgeLabel;html=1;align=center;verticalAlign=middle;resizable=0;points=[];" vertex="1" connectable="0" parent="WCMMu7L2FQIAezlBjaeM-128">
          <mxGeometry x="-0.6" y="-1" relative="1" as="geometry">
            <mxPoint x="14" y="-1" as="offset" />
          </mxGeometry>
        </mxCell>
        <mxCell id="WCMMu7L2FQIAezlBjaeM-130" value="&lt;div&gt;DefaultSingletonBeanRegistry.java&lt;/div&gt;&lt;div&gt;this.singletonObjects.get(beanName);&lt;/div&gt;" style="rhombus;whiteSpace=wrap;html=1;fillColor=#f8cecc;strokeColor=#b85450;" vertex="1" parent="1">
          <mxGeometry x="777.5" y="1030" width="265" height="40" as="geometry" />
        </mxCell>
        <mxCell id="WCMMu7L2FQIAezlBjaeM-131" value="&lt;span style=&quot;font-size: 11px&quot;&gt;直接返回&lt;br&gt;return singletonObject;&lt;/span&gt;" style="rounded=1;whiteSpace=wrap;html=1;" vertex="1" parent="1">
          <mxGeometry x="1110" y="1020" width="240" height="60" as="geometry" />
        </mxCell>
        <mxCell id="WCMMu7L2FQIAezlBjaeM-132" value="&lt;span style=&quot;font-size: 13.0667px&quot;&gt;如果实例化前置处理器返回一个bean的实例对象，则需要在这里调用，初始化后置方法，已完成需要被代理 bean 的代理操作&lt;/span&gt;" style="rounded=1;whiteSpace=wrap;html=1;" vertex="1" parent="1">
          <mxGeometry x="2298.5" y="1170" width="293" height="55" as="geometry" />
        </mxCell>
        <mxCell id="WCMMu7L2FQIAezlBjaeM-133" style="edgeStyle=orthogonalEdgeStyle;rounded=0;orthogonalLoop=1;jettySize=auto;html=1;exitX=1;exitY=0.5;exitDx=0;exitDy=0;entryX=0;entryY=0.5;entryDx=0;entryDy=0;startArrow=none;startFill=0;" edge="1" parent="1" source="WCMMu7L2FQIAezlBjaeM-135" target="WCMMu7L2FQIAezlBjaeM-39">
          <mxGeometry relative="1" as="geometry" />
        </mxCell>
        <mxCell id="WCMMu7L2FQIAezlBjaeM-134" value="直接调用创建bean的方法" style="edgeLabel;html=1;align=center;verticalAlign=middle;resizable=0;points=[];" vertex="1" connectable="0" parent="WCMMu7L2FQIAezlBjaeM-133">
          <mxGeometry x="-0.1723" relative="1" as="geometry">
            <mxPoint as="offset" />
          </mxGeometry>
        </mxCell>
        <mxCell id="WCMMu7L2FQIAezlBjaeM-135" value="&lt;div&gt;&lt;span style=&quot;font-size: 11px ; background-color: rgb(255 , 255 , 255)&quot;&gt;调用上文传来的lambda函数&lt;/span&gt;&lt;br&gt;&lt;/div&gt;&lt;div&gt;DefaultSingletonBeanRegistry.java&lt;/div&gt;&lt;div&gt;singletonFactory.getObject()&lt;/div&gt;" style="rounded=1;whiteSpace=wrap;html=1;" vertex="1" parent="1">
          <mxGeometry x="787.5" y="1430" width="240" height="60" as="geometry" />
        </mxCell>
        <mxCell id="WCMMu7L2FQIAezlBjaeM-136" value="" style="shape=flexArrow;endArrow=classic;startArrow=classic;html=1;rounded=0;" edge="1" parent="1">
          <mxGeometry width="100" height="100" relative="1" as="geometry">
            <mxPoint x="3420" y="3860" as="sourcePoint" />
            <mxPoint x="3420" y="1010" as="targetPoint" />
          </mxGeometry>
        </mxCell>
        <mxCell id="WCMMu7L2FQIAezlBjaeM-137" style="edgeStyle=orthogonalEdgeStyle;rounded=0;orthogonalLoop=1;jettySize=auto;html=1;exitX=1;exitY=0.5;exitDx=0;exitDy=0;entryX=0;entryY=0.5;entryDx=0;entryDy=0;" edge="1" parent="1" source="WCMMu7L2FQIAezlBjaeM-139" target="WCMMu7L2FQIAezlBjaeM-140">
          <mxGeometry relative="1" as="geometry" />
        </mxCell>
        <mxCell id="WCMMu7L2FQIAezlBjaeM-138" style="edgeStyle=orthogonalEdgeStyle;rounded=0;orthogonalLoop=1;jettySize=auto;html=1;exitX=1;exitY=0.5;exitDx=0;exitDy=0;entryX=0;entryY=0.5;entryDx=0;entryDy=0;" edge="1" parent="1" source="WCMMu7L2FQIAezlBjaeM-139" target="WCMMu7L2FQIAezlBjaeM-141">
          <mxGeometry relative="1" as="geometry" />
        </mxCell>
        <mxCell id="WCMMu7L2FQIAezlBjaeM-139" value="&lt;span style=&quot;font-size: 13.0667px&quot;&gt;// 注册bean销毁方法&lt;br&gt;AbstractAutowireCapableBeanFactory&lt;/span&gt;&lt;span style=&quot;font-size: 13.0667px&quot;&gt;.java&lt;br&gt;&lt;/span&gt;&lt;span style=&quot;font-size: 13.0667px&quot;&gt;registerDisposableBeanIfNecessary(beanName, bean, mbd);&lt;/span&gt;" style="rounded=1;whiteSpace=wrap;html=1;" vertex="1" parent="1">
          <mxGeometry x="1900" y="3590" width="280" height="60" as="geometry" />
        </mxCell>
        <mxCell id="WCMMu7L2FQIAezlBjaeM-140" value="&lt;span style=&quot;font-size: 13.0667px&quot;&gt;实现DisposableBean接口重写destory方法&lt;/span&gt;" style="rounded=1;whiteSpace=wrap;html=1;" vertex="1" parent="1">
          <mxGeometry x="2290" y="3530" width="280" height="60" as="geometry" />
        </mxCell>
        <mxCell id="WCMMu7L2FQIAezlBjaeM-141" value="&lt;span style=&quot;font-size: 13.0667px&quot;&gt;自定义destory方法&lt;/span&gt;" style="rounded=1;whiteSpace=wrap;html=1;" vertex="1" parent="1">
          <mxGeometry x="2290" y="3660" width="280" height="60" as="geometry" />
        </mxCell>
        <mxCell id="WCMMu7L2FQIAezlBjaeM-146" style="edgeStyle=orthogonalEdgeStyle;rounded=0;orthogonalLoop=1;jettySize=auto;html=1;exitX=0.5;exitY=1;exitDx=0;exitDy=0;entryX=0.5;entryY=0;entryDx=0;entryDy=0;" edge="1" parent="1" source="WCMMu7L2FQIAezlBjaeM-143" target="WCMMu7L2FQIAezlBjaeM-151">
          <mxGeometry relative="1" as="geometry">
            <mxPoint x="4195" y="1410" as="targetPoint" />
          </mxGeometry>
        </mxCell>
        <mxCell id="WCMMu7L2FQIAezlBjaeM-147" value="为空或者class变了" style="edgeLabel;html=1;align=center;verticalAlign=middle;resizable=0;points=[];" vertex="1" connectable="0" parent="WCMMu7L2FQIAezlBjaeM-146">
          <mxGeometry x="-0.0476" y="1" relative="1" as="geometry">
            <mxPoint as="offset" />
          </mxGeometry>
        </mxCell>
        <mxCell id="WCMMu7L2FQIAezlBjaeM-149" style="edgeStyle=orthogonalEdgeStyle;rounded=0;orthogonalLoop=1;jettySize=auto;html=1;exitX=1;exitY=0.5;exitDx=0;exitDy=0;" edge="1" parent="1" source="WCMMu7L2FQIAezlBjaeM-143" target="WCMMu7L2FQIAezlBjaeM-148">
          <mxGeometry relative="1" as="geometry" />
        </mxCell>
        <mxCell id="WCMMu7L2FQIAezlBjaeM-150" value="有" style="edgeLabel;html=1;align=center;verticalAlign=middle;resizable=0;points=[];" vertex="1" connectable="0" parent="WCMMu7L2FQIAezlBjaeM-149">
          <mxGeometry x="-0.1619" y="-3" relative="1" as="geometry">
            <mxPoint as="offset" />
          </mxGeometry>
        </mxCell>
        <mxCell id="WCMMu7L2FQIAezlBjaeM-143" value="&lt;span style=&quot;font-size: 13.0667px&quot;&gt;尝试从缓存中获取&lt;br&gt;AutowiredAnnotationBeanPostProcessor.java&lt;br&gt;this.injectionMetadataCache.get(cacheKey)&lt;br&gt;&lt;/span&gt;" style="rhombus;whiteSpace=wrap;html=1;" vertex="1" parent="1">
          <mxGeometry x="4030" y="1260" width="330" height="80" as="geometry" />
        </mxCell>
        <mxCell id="WCMMu7L2FQIAezlBjaeM-148" value="&lt;span style=&quot;font-size: 13.0667px&quot;&gt;return metadata&lt;/span&gt;" style="rounded=1;whiteSpace=wrap;html=1;" vertex="1" parent="1">
          <mxGeometry x="4440" y="1277.5" width="130" height="45" as="geometry" />
        </mxCell>
        <mxCell id="WCMMu7L2FQIAezlBjaeM-154" style="edgeStyle=orthogonalEdgeStyle;rounded=0;orthogonalLoop=1;jettySize=auto;html=1;exitX=1;exitY=0.5;exitDx=0;exitDy=0;entryX=0;entryY=0.5;entryDx=0;entryDy=0;" edge="1" parent="1" source="WCMMu7L2FQIAezlBjaeM-151" target="WCMMu7L2FQIAezlBjaeM-152">
          <mxGeometry relative="1" as="geometry">
            <mxPoint x="4458" y="1435" as="targetPoint" />
            <Array as="points">
              <mxPoint x="4430" y="1515" />
              <mxPoint x="4430" y="1435" />
            </Array>
          </mxGeometry>
        </mxCell>
        <mxCell id="WCMMu7L2FQIAezlBjaeM-155" style="edgeStyle=orthogonalEdgeStyle;rounded=0;orthogonalLoop=1;jettySize=auto;html=1;exitX=1;exitY=0.5;exitDx=0;exitDy=0;entryX=0;entryY=0.5;entryDx=0;entryDy=0;" edge="1" parent="1" source="WCMMu7L2FQIAezlBjaeM-151" target="WCMMu7L2FQIAezlBjaeM-153">
          <mxGeometry relative="1" as="geometry">
            <Array as="points">
              <mxPoint x="4430" y="1515" />
              <mxPoint x="4430" y="1611" />
            </Array>
          </mxGeometry>
        </mxCell>
        <mxCell id="WCMMu7L2FQIAezlBjaeM-151" value="&lt;span style=&quot;font-size: 13.0667px&quot;&gt;AutowiredAnnotationBeanPostProcessor.java&lt;/span&gt;&lt;br style=&quot;font-size: 13.0667px&quot;&gt;metadata = buildAutowiringMetadata(clazz);" style="rounded=1;whiteSpace=wrap;html=1;" vertex="1" parent="1">
          <mxGeometry x="4030" y="1480" width="330" height="70" as="geometry" />
        </mxCell>
        <mxCell id="WCMMu7L2FQIAezlBjaeM-158" style="edgeStyle=orthogonalEdgeStyle;rounded=0;orthogonalLoop=1;jettySize=auto;html=1;exitX=1;exitY=0.5;exitDx=0;exitDy=0;entryX=0;entryY=0.5;entryDx=0;entryDy=0;" edge="1" parent="1" source="WCMMu7L2FQIAezlBjaeM-152" target="WCMMu7L2FQIAezlBjaeM-156">
          <mxGeometry relative="1" as="geometry" />
        </mxCell>
        <mxCell id="WCMMu7L2FQIAezlBjaeM-152" value="&lt;span style=&quot;font-size: 13.0667px&quot;&gt;解析当前bean的field&lt;br&gt;AutowiredAnnotationBeanPostProcessor.java&lt;br&gt;&lt;/span&gt;&lt;span style=&quot;font-size: 13.0667px&quot;&gt;ReflectionUtils.doWithLocalFields&lt;/span&gt;&lt;span style=&quot;color: rgba(0 , 0 , 0 , 0) ; font-family: monospace ; font-size: 0px&quot;&gt;%3CmxGraphModel%3E%3Croot%3E%3CmxCell%20id%3D%220%22%2F%3E%3CmxCell%20id%3D%221%22%20parent%3D%220%22%2F%3E%3CmxCell%20id%3D%222%22%20value%3D%22%26lt%3Bspan%20style%3D%26quot%3Bfont-size%3A%2013.0667px%26quot%3B%26gt%3BAutowiredAnnotationBeanPostProcessor.java%26lt%3B%2Fspan%26gt%3B%26lt%3Bbr%20style%3D%26quot%3Bfont-size%3A%2013.0667px%26quot%3B%26gt%3Bmetadata%20%3D%20buildAutowiringMetadata(clazz)%3B%22%20style%3D%22rounded%3D1%3BwhiteSpace%3Dwrap%3Bhtml%3D1%3B%22%20vertex%3D%221%22%20parent%3D%221%22%3E%3CmxGeometry%20x%3D%224030%22%20y%3D%221540%22%20width%3D%22330%22%20height%3D%2270%22%20as%3D%22geometry%22%2F%3E%3C%2FmxCell%3E%3C%2Froot%3E%3C%2FmxGraphModel%3E&lt;/span&gt;" style="rounded=1;whiteSpace=wrap;html=1;" vertex="1" parent="1">
          <mxGeometry x="4490" y="1400" width="330" height="70" as="geometry" />
        </mxCell>
        <mxCell id="WCMMu7L2FQIAezlBjaeM-159" style="edgeStyle=orthogonalEdgeStyle;rounded=0;orthogonalLoop=1;jettySize=auto;html=1;exitX=1;exitY=0.5;exitDx=0;exitDy=0;entryX=0;entryY=0.5;entryDx=0;entryDy=0;" edge="1" parent="1" source="WCMMu7L2FQIAezlBjaeM-153" target="WCMMu7L2FQIAezlBjaeM-157">
          <mxGeometry relative="1" as="geometry" />
        </mxCell>
        <mxCell id="WCMMu7L2FQIAezlBjaeM-153" value="&lt;span style=&quot;font-size: 13.0667px&quot;&gt;解析当前bean的method&lt;br&gt;AutowiredAnnotationBeanPostProcessor.java&lt;br&gt;&lt;/span&gt;&lt;span style=&quot;font-size: 13.0667px&quot;&gt;ReflectionUtils.&lt;/span&gt;&lt;span style=&quot;font-size: 13.0667px&quot;&gt;doWithLocalMethods&lt;/span&gt;&lt;font color=&quot;rgba(0, 0, 0, 0)&quot; face=&quot;monospace&quot;&gt;&lt;span style=&quot;font-size: 0px&quot;&gt;%3CmxGraphModel%3E%3Croot%3E%3CmxCell%20id%3D%220%22%2F%3E%3CmxCell%20id%3D%221%22%20parent%3D%220%22%2F%3E%3CmxCell%20id%3D%222%22%20value%3D%22%26lt%3Bspan%20style%3D%26quot%3Bfont-size%3A%2013.0667px%26quot%3B%26gt%3BAutowiredAnnotationBeanPostProcessor.java%26lt%3B%2Fspan%26gt%3B%26lt%3Bbr%20style%3D%26quot%3Bfont-size%3A%2013.0667px%26quot%3B%26gt%3Bmetadata%20%3D%20buildAutowiringMetadata(clazz)%3B%22%20style%3D%22rounded%3D1%3BwhiteSpace%3Dwrap%3Bhtml%3D1%3B%22%20vertex%3D%221%22%20parent%3D%221%22%3E%3CmxGeometry%20x%3D%224030%22%20y%3D%221540%22%20width%3D%22330%22%20height%3D%2270%22%20as%3D%22geometry%22%2F%3E%3C%2FmxCell%3E%3C%2Froot%3E%3C%2FmxGraphModel%3E&lt;/span&gt;&lt;/font&gt;" style="rounded=1;whiteSpace=wrap;html=1;" vertex="1" parent="1">
          <mxGeometry x="4490" y="1576.53" width="330" height="70" as="geometry" />
        </mxCell>
        <mxCell id="WCMMu7L2FQIAezlBjaeM-167" style="edgeStyle=orthogonalEdgeStyle;rounded=0;orthogonalLoop=1;jettySize=auto;html=1;exitX=1;exitY=0.5;exitDx=0;exitDy=0;entryX=0;entryY=0.5;entryDx=0;entryDy=0;" edge="1" parent="1" source="WCMMu7L2FQIAezlBjaeM-156" target="WCMMu7L2FQIAezlBjaeM-160">
          <mxGeometry relative="1" as="geometry" />
        </mxCell>
        <mxCell id="WCMMu7L2FQIAezlBjaeM-169" value="有" style="edgeLabel;html=1;align=center;verticalAlign=middle;resizable=0;points=[];" vertex="1" connectable="0" parent="WCMMu7L2FQIAezlBjaeM-167">
          <mxGeometry x="-0.4605" y="1" relative="1" as="geometry">
            <mxPoint x="17" y="1" as="offset" />
          </mxGeometry>
        </mxCell>
        <mxCell id="WCMMu7L2FQIAezlBjaeM-156" value="&lt;span style=&quot;font-size: 13.0667px&quot;&gt;判断field上是否有@Autowire注解&lt;br&gt;AutowiredAnnotationBeanPostProcessor.java&lt;br&gt;&lt;/span&gt;&lt;span style=&quot;font-size: 13.0667px&quot;&gt;findAutowiredAnnotation(field)&lt;/span&gt;" style="rhombus;whiteSpace=wrap;html=1;" vertex="1" parent="1">
          <mxGeometry x="4910" y="1400" width="330" height="70" as="geometry" />
        </mxCell>
        <mxCell id="WCMMu7L2FQIAezlBjaeM-168" style="edgeStyle=orthogonalEdgeStyle;rounded=0;orthogonalLoop=1;jettySize=auto;html=1;exitX=1;exitY=0.5;exitDx=0;exitDy=0;entryX=0;entryY=0.5;entryDx=0;entryDy=0;" edge="1" parent="1" source="WCMMu7L2FQIAezlBjaeM-157" target="WCMMu7L2FQIAezlBjaeM-161">
          <mxGeometry relative="1" as="geometry" />
        </mxCell>
        <mxCell id="WCMMu7L2FQIAezlBjaeM-170" value="有" style="edgeLabel;html=1;align=center;verticalAlign=middle;resizable=0;points=[];" vertex="1" connectable="0" parent="WCMMu7L2FQIAezlBjaeM-168">
          <mxGeometry x="-0.2871" y="2" relative="1" as="geometry">
            <mxPoint as="offset" />
          </mxGeometry>
        </mxCell>
        <mxCell id="WCMMu7L2FQIAezlBjaeM-157" value="&lt;span style=&quot;font-size: 13.0667px&quot;&gt;判断field上是否有@Autowire注解&lt;br&gt;AutowiredAnnotationBeanPostProcessor.java&lt;br&gt;&lt;/span&gt;&lt;span style=&quot;font-size: 13.0667px&quot;&gt;findAutowiredAnnotation(field)&lt;/span&gt;" style="rhombus;whiteSpace=wrap;html=1;" vertex="1" parent="1">
          <mxGeometry x="4920" y="1576.53" width="330" height="70" as="geometry" />
        </mxCell>
        <mxCell id="WCMMu7L2FQIAezlBjaeM-165" style="edgeStyle=orthogonalEdgeStyle;rounded=0;orthogonalLoop=1;jettySize=auto;html=1;exitX=1;exitY=0.5;exitDx=0;exitDy=0;entryX=0;entryY=0.5;entryDx=0;entryDy=0;" edge="1" parent="1" source="WCMMu7L2FQIAezlBjaeM-160" target="WCMMu7L2FQIAezlBjaeM-162">
          <mxGeometry relative="1" as="geometry" />
        </mxCell>
        <mxCell id="WCMMu7L2FQIAezlBjaeM-160" value="&lt;span style=&quot;font-size: 13.0667px&quot;&gt;获取@Autowire注解中的require的值&lt;br&gt;AutowiredAnnotationBeanPostProcessor.java&lt;br&gt;&lt;/span&gt;&lt;span style=&quot;font-size: 13.0667px&quot;&gt;boolean required = determineRequiredStatus(ann);&lt;/span&gt;" style="rounded=1;whiteSpace=wrap;html=1;" vertex="1" parent="1">
          <mxGeometry x="5360" y="1400" width="330" height="70" as="geometry" />
        </mxCell>
        <mxCell id="WCMMu7L2FQIAezlBjaeM-166" style="edgeStyle=orthogonalEdgeStyle;rounded=0;orthogonalLoop=1;jettySize=auto;html=1;exitX=1;exitY=0.5;exitDx=0;exitDy=0;entryX=0;entryY=0.5;entryDx=0;entryDy=0;" edge="1" parent="1" source="WCMMu7L2FQIAezlBjaeM-161" target="WCMMu7L2FQIAezlBjaeM-164">
          <mxGeometry relative="1" as="geometry" />
        </mxCell>
        <mxCell id="WCMMu7L2FQIAezlBjaeM-161" value="&lt;span style=&quot;font-size: 13.0667px&quot;&gt;获取@Autowire注解中的require的值&lt;br&gt;AutowiredAnnotationBeanPostProcessor.java&lt;br&gt;&lt;/span&gt;&lt;span style=&quot;font-size: 13.0667px&quot;&gt;boolean required = determineRequiredStatus(ann);&lt;/span&gt;" style="rounded=1;whiteSpace=wrap;html=1;" vertex="1" parent="1">
          <mxGeometry x="5360" y="1576.53" width="330" height="70" as="geometry" />
        </mxCell>
        <mxCell id="WCMMu7L2FQIAezlBjaeM-173" style="edgeStyle=orthogonalEdgeStyle;rounded=0;orthogonalLoop=1;jettySize=auto;html=1;exitX=1;exitY=0.5;exitDx=0;exitDy=0;entryX=0;entryY=0.5;entryDx=0;entryDy=0;" edge="1" parent="1" source="WCMMu7L2FQIAezlBjaeM-162" target="WCMMu7L2FQIAezlBjaeM-172">
          <mxGeometry relative="1" as="geometry" />
        </mxCell>
        <mxCell id="WCMMu7L2FQIAezlBjaeM-162" value="&lt;span style=&quot;font-size: 13.0667px&quot;&gt;封装成&lt;/span&gt;&lt;span style=&quot;font-size: 13.0667px&quot;&gt;AutowiredFieldElement放入集合中&lt;/span&gt;&lt;span style=&quot;font-size: 13.0667px&quot;&gt;&lt;br&gt;AutowiredAnnotationBeanPostProcessor.java&lt;br&gt;&lt;/span&gt;&lt;span style=&quot;font-size: 13.0667px&quot;&gt;currElements.add(new AutowiredFieldElement(field, required))&lt;/span&gt;" style="rounded=1;whiteSpace=wrap;html=1;" vertex="1" parent="1">
          <mxGeometry x="5790" y="1400" width="330" height="70" as="geometry" />
        </mxCell>
        <mxCell id="WCMMu7L2FQIAezlBjaeM-174" style="edgeStyle=orthogonalEdgeStyle;rounded=0;orthogonalLoop=1;jettySize=auto;html=1;exitX=1;exitY=0.5;exitDx=0;exitDy=0;entryX=0;entryY=0.5;entryDx=0;entryDy=0;" edge="1" parent="1" source="WCMMu7L2FQIAezlBjaeM-164" target="WCMMu7L2FQIAezlBjaeM-172">
          <mxGeometry relative="1" as="geometry">
            <mxPoint x="6230" y="1611.571428571429" as="targetPoint" />
          </mxGeometry>
        </mxCell>
        <mxCell id="WCMMu7L2FQIAezlBjaeM-164" value="&lt;span style=&quot;font-size: 13.0667px&quot;&gt;封装成&lt;/span&gt;&lt;span style=&quot;font-size: 13.0667px&quot;&gt;AutowiredMethodElement&lt;/span&gt;&lt;span style=&quot;font-size: 13.0667px&quot;&gt;放入集合中&lt;/span&gt;&lt;span style=&quot;font-size: 13.0667px&quot;&gt;&lt;br&gt;AutowiredAnnotationBeanPostProcessor.java&lt;br&gt;&lt;/span&gt;&lt;span style=&quot;font-size: 13.0667px&quot;&gt;currElements.add(new AutowiredMethodElement(method, required, pd));&lt;/span&gt;" style="rounded=1;whiteSpace=wrap;html=1;" vertex="1" parent="1">
          <mxGeometry x="5790" y="1576.53" width="330" height="70" as="geometry" />
        </mxCell>
        <mxCell id="WCMMu7L2FQIAezlBjaeM-175" style="edgeStyle=orthogonalEdgeStyle;rounded=0;orthogonalLoop=1;jettySize=auto;html=1;exitX=0.5;exitY=0;exitDx=0;exitDy=0;entryX=0.5;entryY=0;entryDx=0;entryDy=0;dashed=1;" edge="1" parent="1" source="WCMMu7L2FQIAezlBjaeM-172" target="WCMMu7L2FQIAezlBjaeM-143">
          <mxGeometry relative="1" as="geometry">
            <mxPoint x="3680" y="1320" as="targetPoint" />
            <Array as="points">
              <mxPoint x="6315" y="1220" />
              <mxPoint x="4195" y="1220" />
            </Array>
          </mxGeometry>
        </mxCell>
        <mxCell id="WCMMu7L2FQIAezlBjaeM-172" value="&lt;span style=&quot;font-size: 13.0667px&quot;&gt;解析的出来的结果会放入&lt;br&gt;&lt;/span&gt;injectionMetadataCache缓存中" style="rounded=1;whiteSpace=wrap;html=1;" vertex="1" parent="1">
          <mxGeometry x="6190" y="1500" width="250" height="60" as="geometry" />
        </mxCell>
        <mxCell id="WCMMu7L2FQIAezlBjaeM-179" style="edgeStyle=orthogonalEdgeStyle;rounded=0;orthogonalLoop=1;jettySize=auto;html=1;exitX=1;exitY=0.5;exitDx=0;exitDy=0;" edge="1" parent="1" source="WCMMu7L2FQIAezlBjaeM-176" target="WCMMu7L2FQIAezlBjaeM-178">
          <mxGeometry relative="1" as="geometry" />
        </mxCell>
        <mxCell id="WCMMu7L2FQIAezlBjaeM-176" value="AutowiredAnnotationBeanPostProcessor.java&lt;br&gt;metadata.inject(bean, beanName, pvs);" style="rounded=1;whiteSpace=wrap;html=1;" vertex="1" parent="1">
          <mxGeometry x="4010" y="2310" width="310" height="48" as="geometry" />
        </mxCell>
        <mxCell id="WCMMu7L2FQIAezlBjaeM-181" style="edgeStyle=orthogonalEdgeStyle;rounded=0;orthogonalLoop=1;jettySize=auto;html=1;exitX=1;exitY=0.5;exitDx=0;exitDy=0;entryX=0;entryY=0.5;entryDx=0;entryDy=0;" edge="1" parent="1" source="WCMMu7L2FQIAezlBjaeM-178" target="WCMMu7L2FQIAezlBjaeM-180">
          <mxGeometry relative="1" as="geometry" />
        </mxCell>
        <mxCell id="WCMMu7L2FQIAezlBjaeM-182" value="处理field" style="edgeLabel;html=1;align=center;verticalAlign=middle;resizable=0;points=[];" vertex="1" connectable="0" parent="WCMMu7L2FQIAezlBjaeM-181">
          <mxGeometry x="0.0853" relative="1" as="geometry">
            <mxPoint as="offset" />
          </mxGeometry>
        </mxCell>
        <mxCell id="WCMMu7L2FQIAezlBjaeM-184" style="edgeStyle=orthogonalEdgeStyle;rounded=0;orthogonalLoop=1;jettySize=auto;html=1;exitX=1;exitY=0.5;exitDx=0;exitDy=0;entryX=0;entryY=0.5;entryDx=0;entryDy=0;" edge="1" parent="1" source="WCMMu7L2FQIAezlBjaeM-178" target="WCMMu7L2FQIAezlBjaeM-183">
          <mxGeometry relative="1" as="geometry" />
        </mxCell>
        <mxCell id="WCMMu7L2FQIAezlBjaeM-185" value="处理method" style="edgeLabel;html=1;align=center;verticalAlign=middle;resizable=0;points=[];" vertex="1" connectable="0" parent="WCMMu7L2FQIAezlBjaeM-184">
          <mxGeometry x="0.1471" y="3" relative="1" as="geometry">
            <mxPoint x="-3" y="-18" as="offset" />
          </mxGeometry>
        </mxCell>
        <mxCell id="WCMMu7L2FQIAezlBjaeM-178" value="AutowiredAnnotationBeanPostProcessor.java&lt;br&gt;element.inject(target, beanName, pvs);" style="rhombus;whiteSpace=wrap;html=1;" vertex="1" parent="1">
          <mxGeometry x="4410" y="2290" width="310" height="88" as="geometry" />
        </mxCell>
        <mxCell id="WCMMu7L2FQIAezlBjaeM-187" style="edgeStyle=orthogonalEdgeStyle;rounded=0;orthogonalLoop=1;jettySize=auto;html=1;exitX=1;exitY=0.5;exitDx=0;exitDy=0;entryX=0;entryY=0.5;entryDx=0;entryDy=0;" edge="1" parent="1" source="WCMMu7L2FQIAezlBjaeM-180" target="WCMMu7L2FQIAezlBjaeM-186">
          <mxGeometry relative="1" as="geometry" />
        </mxCell>
        <mxCell id="WCMMu7L2FQIAezlBjaeM-180" value="AutowiredFieldElement&lt;br&gt;inject()" style="rounded=1;whiteSpace=wrap;html=1;" vertex="1" parent="1">
          <mxGeometry x="4920" y="1880.0000000000002" width="310" height="48" as="geometry" />
        </mxCell>
        <mxCell id="WCMMu7L2FQIAezlBjaeM-183" value="AutowiredMethodElement&lt;br&gt;inject()" style="rounded=1;whiteSpace=wrap;html=1;" vertex="1" parent="1">
          <mxGeometry x="4920" y="2430" width="310" height="48" as="geometry" />
        </mxCell>
        <mxCell id="WCMMu7L2FQIAezlBjaeM-188" style="edgeStyle=orthogonalEdgeStyle;rounded=0;orthogonalLoop=1;jettySize=auto;html=1;exitX=1;exitY=0.5;exitDx=0;exitDy=0;entryX=0;entryY=0.5;entryDx=0;entryDy=0;" edge="1" parent="1" source="WCMMu7L2FQIAezlBjaeM-186" target="WCMMu7L2FQIAezlBjaeM-189">
          <mxGeometry relative="1" as="geometry">
            <mxPoint x="5750" y="1904.5882352941176" as="targetPoint" />
          </mxGeometry>
        </mxCell>
        <mxCell id="WCMMu7L2FQIAezlBjaeM-190" value="有" style="edgeLabel;html=1;align=center;verticalAlign=middle;resizable=0;points=[];" vertex="1" connectable="0" parent="WCMMu7L2FQIAezlBjaeM-188">
          <mxGeometry x="-0.1854" y="2" relative="1" as="geometry">
            <mxPoint as="offset" />
          </mxGeometry>
        </mxCell>
        <mxCell id="WCMMu7L2FQIAezlBjaeM-192" value="没有" style="edgeStyle=orthogonalEdgeStyle;rounded=0;orthogonalLoop=1;jettySize=auto;html=1;exitX=0.5;exitY=1;exitDx=0;exitDy=0;entryX=0.5;entryY=0;entryDx=0;entryDy=0;" edge="1" parent="1" source="WCMMu7L2FQIAezlBjaeM-186" target="WCMMu7L2FQIAezlBjaeM-191">
          <mxGeometry relative="1" as="geometry" />
        </mxCell>
        <mxCell id="WCMMu7L2FQIAezlBjaeM-186" value="先从缓存中获取&lt;br&gt;AutowiredFieldElement&lt;br&gt;value = resolvedCachedArgument(beanName, this.cachedFieldValue);" style="rhombus;whiteSpace=wrap;html=1;" vertex="1" parent="1">
          <mxGeometry x="5320" y="1870" width="330" height="70" as="geometry" />
        </mxCell>
        <mxCell id="WCMMu7L2FQIAezlBjaeM-189" value="通过反射给field赋值&lt;br&gt;AutowiredFieldElement&lt;br&gt;field.set(bean, value);" style="rounded=1;whiteSpace=wrap;html=1;" vertex="1" parent="1">
          <mxGeometry x="5740" y="1880.0000000000002" width="310" height="48" as="geometry" />
        </mxCell>
        <mxCell id="WCMMu7L2FQIAezlBjaeM-194" style="edgeStyle=orthogonalEdgeStyle;rounded=0;orthogonalLoop=1;jettySize=auto;html=1;exitX=1;exitY=0.5;exitDx=0;exitDy=0;entryX=0;entryY=0.5;entryDx=0;entryDy=0;" edge="1" parent="1" source="WCMMu7L2FQIAezlBjaeM-191" target="WCMMu7L2FQIAezlBjaeM-193">
          <mxGeometry relative="1" as="geometry" />
        </mxCell>
        <mxCell id="WCMMu7L2FQIAezlBjaeM-196" style="edgeStyle=orthogonalEdgeStyle;rounded=0;orthogonalLoop=1;jettySize=auto;html=1;exitX=1;exitY=0.5;exitDx=0;exitDy=0;entryX=0;entryY=0.5;entryDx=0;entryDy=0;" edge="1" parent="1" source="WCMMu7L2FQIAezlBjaeM-191" target="WCMMu7L2FQIAezlBjaeM-195">
          <mxGeometry relative="1" as="geometry" />
        </mxCell>
        <mxCell id="WCMMu7L2FQIAezlBjaeM-191" value="AutowiredFieldElement&lt;br&gt;value = beanFactory.resolveDependency(desc, beanName, autowiredBeanNames, typeConverter);" style="rounded=1;whiteSpace=wrap;html=1;" vertex="1" parent="1">
          <mxGeometry x="5330" y="2070" width="310" height="48" as="geometry" />
        </mxCell>
        <mxCell id="WCMMu7L2FQIAezlBjaeM-193" value="DefaultListableBeanFactory.java&lt;br&gt;descriptor.initParameterNameDiscovery(&lt;br&gt;getParameterNameDiscoverer());" style="rounded=1;whiteSpace=wrap;html=1;" vertex="1" parent="1">
          <mxGeometry x="5740" y="1978.53" width="310" height="48" as="geometry" />
        </mxCell>
        <mxCell id="WCMMu7L2FQIAezlBjaeM-198" style="edgeStyle=orthogonalEdgeStyle;rounded=0;orthogonalLoop=1;jettySize=auto;html=1;exitX=1;exitY=0.5;exitDx=0;exitDy=0;entryX=0;entryY=0.5;entryDx=0;entryDy=0;" edge="1" parent="1" source="WCMMu7L2FQIAezlBjaeM-195" target="WCMMu7L2FQIAezlBjaeM-197">
          <mxGeometry relative="1" as="geometry" />
        </mxCell>
        <mxCell id="WCMMu7L2FQIAezlBjaeM-195" value="DefaultListableBeanFactory.java&lt;br&gt;&lt;div&gt;&lt;span&gt;Object result = getAutowireCandidateResolver().getLazyResolutionProxyIfNecessary(&lt;/span&gt;&lt;br&gt;&lt;/div&gt;&lt;div&gt;&lt;span&gt;					&lt;/span&gt;descriptor, requestingBeanName);&lt;/div&gt;" style="rounded=1;whiteSpace=wrap;html=1;" vertex="1" parent="1">
          <mxGeometry x="5740" y="2060" width="330" height="68" as="geometry" />
        </mxCell>
        <mxCell id="WCMMu7L2FQIAezlBjaeM-200" style="edgeStyle=orthogonalEdgeStyle;rounded=0;orthogonalLoop=1;jettySize=auto;html=1;exitX=1;exitY=0.5;exitDx=0;exitDy=0;" edge="1" parent="1" source="WCMMu7L2FQIAezlBjaeM-197" target="WCMMu7L2FQIAezlBjaeM-199">
          <mxGeometry relative="1" as="geometry" />
        </mxCell>
        <mxCell id="WCMMu7L2FQIAezlBjaeM-201" value="有@Lazy注解" style="edgeLabel;html=1;align=center;verticalAlign=middle;resizable=0;points=[];" vertex="1" connectable="0" parent="WCMMu7L2FQIAezlBjaeM-200">
          <mxGeometry x="-0.2753" y="-1" relative="1" as="geometry">
            <mxPoint x="14" y="-1" as="offset" />
          </mxGeometry>
        </mxCell>
        <mxCell id="WCMMu7L2FQIAezlBjaeM-205" style="edgeStyle=orthogonalEdgeStyle;rounded=0;orthogonalLoop=1;jettySize=auto;html=1;exitX=0.5;exitY=1;exitDx=0;exitDy=0;entryX=0.5;entryY=0;entryDx=0;entryDy=0;" edge="1" parent="1" source="WCMMu7L2FQIAezlBjaeM-197" target="WCMMu7L2FQIAezlBjaeM-204">
          <mxGeometry relative="1" as="geometry" />
        </mxCell>
        <mxCell id="WCMMu7L2FQIAezlBjaeM-206" value="没有@Lazy注解" style="edgeLabel;html=1;align=center;verticalAlign=middle;resizable=0;points=[];" vertex="1" connectable="0" parent="WCMMu7L2FQIAezlBjaeM-205">
          <mxGeometry x="-0.4485" relative="1" as="geometry">
            <mxPoint x="-77" y="-5" as="offset" />
          </mxGeometry>
        </mxCell>
        <mxCell id="WCMMu7L2FQIAezlBjaeM-197" value="&lt;div&gt;判断field上是有加了@Lazy注解&lt;/div&gt;return (isLazy(descriptor) ? buildLazyResolutionProxy(descriptor, beanName) : null);" style="rhombus;whiteSpace=wrap;html=1;fillColor=#dae8fc;strokeColor=#6c8ebf;" vertex="1" parent="1">
          <mxGeometry x="6150" y="2060" width="330" height="68" as="geometry" />
        </mxCell>
        <mxCell id="WCMMu7L2FQIAezlBjaeM-203" style="edgeStyle=orthogonalEdgeStyle;rounded=0;orthogonalLoop=1;jettySize=auto;html=1;exitX=1;exitY=0.5;exitDx=0;exitDy=0;" edge="1" parent="1" source="WCMMu7L2FQIAezlBjaeM-199" target="WCMMu7L2FQIAezlBjaeM-202">
          <mxGeometry relative="1" as="geometry" />
        </mxCell>
        <mxCell id="WCMMu7L2FQIAezlBjaeM-199" value="ContextAnnotationAutowireCandidateResolver.java&lt;br&gt;buildLazyResolutionProxy(descriptor, beanName)" style="rounded=1;whiteSpace=wrap;html=1;" vertex="1" parent="1">
          <mxGeometry x="6600" y="2064" width="290" height="60" as="geometry" />
        </mxCell>
        <mxCell id="WCMMu7L2FQIAezlBjaeM-202" value="返回一个代理对象&lt;br&gt;ContextAnnotationAutowireCandidateResolver.java&lt;br&gt;return pf.getProxy(dlbf.getBeanClassLoader());" style="rounded=1;whiteSpace=wrap;html=1;" vertex="1" parent="1">
          <mxGeometry x="6990" y="2064" width="290" height="60" as="geometry" />
        </mxCell>
        <mxCell id="WCMMu7L2FQIAezlBjaeM-204" value="DefaultListableBeanFactory.java&lt;br&gt;result = doResolveDependency(descriptor, requestingBeanName, autowiredBeanNames, typeConverter);" style="rounded=1;whiteSpace=wrap;html=1;" vertex="1" parent="1">
          <mxGeometry x="5740" y="2242" width="330" height="68" as="geometry" />
        </mxCell>
      </root>
    </mxGraphModel>
  </diagram>
</mxfile>
